%TF.GenerationSoftware,KiCad,Pcbnew,7.0.6*%
%TF.CreationDate,2023-08-31T13:47:40+02:00*%
%TF.ProjectId,clickyKeyboard,636c6963-6b79-44b6-9579-626f6172642e,rev?*%
%TF.SameCoordinates,Original*%
%TF.FileFunction,Copper,L1,Top*%
%TF.FilePolarity,Positive*%
%FSLAX46Y46*%
G04 Gerber Fmt 4.6, Leading zero omitted, Abs format (unit mm)*
G04 Created by KiCad (PCBNEW 7.0.6) date 2023-08-31 13:47:40*
%MOMM*%
%LPD*%
G01*
G04 APERTURE LIST*
%TA.AperFunction,ComponentPad*%
%ADD10R,1.700000X1.700000*%
%TD*%
%TA.AperFunction,ComponentPad*%
%ADD11O,1.700000X1.700000*%
%TD*%
%TA.AperFunction,SMDPad,CuDef*%
%ADD12R,1.700000X3.500000*%
%TD*%
%TA.AperFunction,SMDPad,CuDef*%
%ADD13R,3.500000X1.700000*%
%TD*%
%TA.AperFunction,SMDPad,CuDef*%
%ADD14R,1.200000X2.500000*%
%TD*%
%TA.AperFunction,SMDPad,CuDef*%
%ADD15R,1.500000X0.900000*%
%TD*%
%TA.AperFunction,ComponentPad*%
%ADD16C,1.400000*%
%TD*%
%TA.AperFunction,ComponentPad*%
%ADD17O,1.400000X1.400000*%
%TD*%
%TA.AperFunction,ComponentPad*%
%ADD18R,2.000000X2.000000*%
%TD*%
%TA.AperFunction,ComponentPad*%
%ADD19C,2.000000*%
%TD*%
%TA.AperFunction,ComponentPad*%
%ADD20R,3.200000X2.000000*%
%TD*%
%TA.AperFunction,Conductor*%
%ADD21C,0.800000*%
%TD*%
G04 APERTURE END LIST*
D10*
%TO.P,J1,1,Pin_1*%
%TO.N,Net-(J1-Pin_1)*%
X123190000Y-104140000D03*
D11*
%TO.P,J1,2,Pin_2*%
%TO.N,Net-(J1-Pin_2)*%
X120650000Y-104140000D03*
%TO.P,J1,3,Pin_3*%
%TO.N,Net-(J1-Pin_3)*%
X118110000Y-104140000D03*
%TO.P,J1,4,Pin_4*%
%TO.N,Net-(J1-Pin_4)*%
X115570000Y-104140000D03*
%TD*%
%TO.P,U1,1,GPIO0*%
%TO.N,Net-(J1-Pin_1)*%
X177165000Y-86360000D03*
D12*
X177165000Y-85460000D03*
D11*
%TO.P,U1,2,GPIO1*%
%TO.N,Net-(J1-Pin_2)*%
X174625000Y-86360000D03*
D12*
X174625000Y-85460000D03*
D10*
%TO.P,U1,3,GND*%
%TO.N,Net-(J1-Pin_3)*%
X172085000Y-86360000D03*
D12*
X172085000Y-85460000D03*
D11*
%TO.P,U1,4,GPIO2*%
%TO.N,Net-(J1-Pin_4)*%
X169545000Y-86360000D03*
D12*
X169545000Y-85460000D03*
D11*
%TO.P,U1,5,GPIO3*%
%TO.N,Net-(J2-Pin_1)*%
X167005000Y-86360000D03*
D12*
X167005000Y-85460000D03*
D11*
%TO.P,U1,6,GPIO4*%
%TO.N,unconnected-(U1-GPIO4-Pad6)*%
X164465000Y-86360000D03*
D12*
X164465000Y-85460000D03*
D11*
%TO.P,U1,7,GPIO5*%
%TO.N,Net-(J2-Pin_2)*%
X161925000Y-86360000D03*
D12*
X161925000Y-85460000D03*
D10*
%TO.P,U1,8,GND*%
%TO.N,Net-(J2-Pin_3)*%
X159385000Y-86360000D03*
D12*
X159385000Y-85460000D03*
D11*
%TO.P,U1,9,GPIO6*%
%TO.N,Net-(J2-Pin_4)*%
X156845000Y-86360000D03*
D12*
X156845000Y-85460000D03*
D11*
%TO.P,U1,10,GPIO7*%
%TO.N,Net-(J2-Pin_5)*%
X154305000Y-86360000D03*
D12*
X154305000Y-85460000D03*
D11*
%TO.P,U1,11,GPIO8*%
%TO.N,Net-(J2-Pin_6)*%
X151765000Y-86360000D03*
D12*
X151765000Y-85460000D03*
D11*
%TO.P,U1,12,GPIO9*%
%TO.N,Net-(J2-Pin_7)*%
X149225000Y-86360000D03*
D12*
X149225000Y-85460000D03*
D10*
%TO.P,U1,13,GND*%
%TO.N,Net-(J4-PadR1)*%
X146685000Y-86360000D03*
D12*
X146685000Y-85460000D03*
D11*
%TO.P,U1,14,GPIO10*%
%TO.N,Net-(U1-GPIO10)*%
X144145000Y-86360000D03*
D12*
X144145000Y-85460000D03*
D11*
%TO.P,U1,15,GPIO11*%
%TO.N,unconnected-(U1-GPIO11-Pad15)*%
X141605000Y-86360000D03*
D12*
X141605000Y-85460000D03*
D11*
%TO.P,U1,16,GPIO12*%
%TO.N,Net-(U1-GPIO12)*%
X139065000Y-86360000D03*
D12*
X139065000Y-85460000D03*
D11*
%TO.P,U1,17,GPIO13*%
%TO.N,Net-(U1-GPIO13)*%
X136525000Y-86360000D03*
D12*
X136525000Y-85460000D03*
D10*
%TO.P,U1,18,GND*%
%TO.N,Net-(SW1-PadB)*%
X133985000Y-86360000D03*
D12*
X133985000Y-85460000D03*
D11*
%TO.P,U1,19,GPIO14*%
%TO.N,Net-(U1-GPIO14)*%
X131445000Y-86360000D03*
D12*
X131445000Y-85460000D03*
D11*
%TO.P,U1,20,GPIO15*%
%TO.N,unconnected-(U1-GPIO15-Pad20)*%
X128905000Y-86360000D03*
D12*
X128905000Y-85460000D03*
D11*
%TO.P,U1,21,GPIO16*%
%TO.N,unconnected-(U1-GPIO16-Pad21)*%
X128905000Y-104140000D03*
D12*
X128905000Y-105040000D03*
D11*
%TO.P,U1,22,GPIO17*%
%TO.N,unconnected-(U1-GPIO17-Pad22)*%
X131445000Y-104140000D03*
D12*
X131445000Y-105040000D03*
D10*
%TO.P,U1,23,GND*%
%TO.N,unconnected-(U1-GND-Pad23)*%
X133985000Y-104140000D03*
D12*
X133985000Y-105040000D03*
D11*
%TO.P,U1,24,GPIO18*%
%TO.N,unconnected-(U1-GPIO18-Pad24)*%
X136525000Y-104140000D03*
D12*
X136525000Y-105040000D03*
D11*
%TO.P,U1,25,GPIO19*%
%TO.N,unconnected-(U1-GPIO19-Pad25)*%
X139065000Y-104140000D03*
D12*
X139065000Y-105040000D03*
D11*
%TO.P,U1,26,GPIO20*%
%TO.N,unconnected-(U1-GPIO20-Pad26)*%
X141605000Y-104140000D03*
D12*
X141605000Y-105040000D03*
D11*
%TO.P,U1,27,GPIO21*%
%TO.N,unconnected-(U1-GPIO21-Pad27)*%
X144145000Y-104140000D03*
D12*
X144145000Y-105040000D03*
D10*
%TO.P,U1,28,GND*%
%TO.N,unconnected-(U1-GND-Pad28)*%
X146685000Y-104140000D03*
D12*
X146685000Y-105040000D03*
D11*
%TO.P,U1,29,GPIO22*%
%TO.N,unconnected-(U1-GPIO22-Pad29)*%
X149225000Y-104140000D03*
D12*
X149225000Y-105040000D03*
D11*
%TO.P,U1,30,RUN*%
%TO.N,unconnected-(U1-RUN-Pad30)*%
X151765000Y-104140000D03*
D12*
X151765000Y-105040000D03*
D11*
%TO.P,U1,31,GPIO26_ADC0*%
%TO.N,unconnected-(U1-GPIO26_ADC0-Pad31)*%
X154305000Y-104140000D03*
D12*
X154305000Y-105040000D03*
D11*
%TO.P,U1,32,GPIO27_ADC1*%
%TO.N,unconnected-(U1-GPIO27_ADC1-Pad32)*%
X156845000Y-104140000D03*
D12*
X156845000Y-105040000D03*
D10*
%TO.P,U1,33,AGND*%
%TO.N,unconnected-(U1-AGND-Pad33)*%
X159385000Y-104140000D03*
D12*
X159385000Y-105040000D03*
D11*
%TO.P,U1,34,GPIO28_ADC2*%
%TO.N,unconnected-(U1-GPIO28_ADC2-Pad34)*%
X161925000Y-104140000D03*
D12*
X161925000Y-105040000D03*
D11*
%TO.P,U1,35,ADC_VREF*%
%TO.N,unconnected-(U1-ADC_VREF-Pad35)*%
X164465000Y-104140000D03*
D12*
X164465000Y-105040000D03*
D11*
%TO.P,U1,36,3V3*%
%TO.N,Net-(U1-3V3)*%
X167005000Y-104140000D03*
D12*
X167005000Y-105040000D03*
D11*
%TO.P,U1,37,3V3_EN*%
%TO.N,unconnected-(U1-3V3_EN-Pad37)*%
X169545000Y-104140000D03*
D12*
X169545000Y-105040000D03*
D10*
%TO.P,U1,38,GND*%
%TO.N,Net-(D1-VSS)*%
X172085000Y-104140000D03*
D12*
X172085000Y-105040000D03*
D11*
%TO.P,U1,39,VSYS*%
%TO.N,unconnected-(U1-VSYS-Pad39)*%
X174625000Y-104140000D03*
D12*
X174625000Y-105040000D03*
D11*
%TO.P,U1,40,VBUS*%
%TO.N,unconnected-(U1-VBUS-Pad40)*%
X177165000Y-104140000D03*
D12*
X177165000Y-105040000D03*
D11*
%TO.P,U1,41,SWCLK*%
%TO.N,unconnected-(U1-SWCLK-Pad41)*%
X129135000Y-92710000D03*
D13*
X128235000Y-92710000D03*
D10*
%TO.P,U1,42,GND*%
%TO.N,unconnected-(U1-GND-Pad42)*%
X129135000Y-95250000D03*
D13*
X128235000Y-95250000D03*
D11*
%TO.P,U1,43,SWDIO*%
%TO.N,unconnected-(U1-SWDIO-Pad43)*%
X129135000Y-97790000D03*
D13*
X128235000Y-97790000D03*
%TD*%
D14*
%TO.P,J4,R1*%
%TO.N,Net-(J4-PadR1)*%
X76080000Y-88190000D03*
%TO.P,J4,R2*%
%TO.N,Net-(U1-GPIO10)*%
X73080000Y-88190000D03*
%TO.P,J4,S*%
%TO.N,Net-(D1-VSS)*%
X81180000Y-94690000D03*
%TO.P,J4,T*%
%TO.N,Net-(U1-3V3)*%
X80080000Y-88190000D03*
%TD*%
D15*
%TO.P,D5,1,VDD*%
%TO.N,Net-(D1-VDD)*%
X159114000Y-78230000D03*
%TO.P,D5,2,DOUT*%
%TO.N,Net-(D5-DOUT)*%
X159114000Y-74930000D03*
%TO.P,D5,3,VSS*%
%TO.N,Net-(D1-VSS)*%
X154214000Y-74930000D03*
%TO.P,D5,4,DIN*%
%TO.N,Net-(D4-DOUT)*%
X154214000Y-78230000D03*
%TD*%
%TO.P,D1,1,VDD*%
%TO.N,Net-(D1-VDD)*%
X80010000Y-78230000D03*
%TO.P,D1,2,DOUT*%
%TO.N,Net-(D1-DOUT)*%
X80010000Y-74930000D03*
%TO.P,D1,3,VSS*%
%TO.N,Net-(D1-VSS)*%
X75110000Y-74930000D03*
%TO.P,D1,4,DIN*%
%TO.N,Net-(D1-DIN)*%
X75110000Y-78230000D03*
%TD*%
%TO.P,D3,1,VDD*%
%TO.N,Net-(D1-VDD)*%
X119562000Y-78230000D03*
%TO.P,D3,2,DOUT*%
%TO.N,Net-(D3-DOUT)*%
X119562000Y-74930000D03*
%TO.P,D3,3,VSS*%
%TO.N,Net-(D1-VSS)*%
X114662000Y-74930000D03*
%TO.P,D3,4,DIN*%
%TO.N,Net-(D2-DOUT)*%
X114662000Y-78230000D03*
%TD*%
D16*
%TO.P,R2,1*%
%TO.N,Net-(D1-VDD)*%
X87630000Y-81280000D03*
D17*
%TO.P,R2,2*%
%TO.N,Net-(U1-3V3)*%
X95250000Y-81280000D03*
%TD*%
D16*
%TO.P,R1,1*%
%TO.N,Net-(U1-GPIO14)*%
X83185000Y-81280000D03*
D17*
%TO.P,R1,2*%
%TO.N,Net-(D1-DIN)*%
X75565000Y-81280000D03*
%TD*%
D10*
%TO.P,J2,1,Pin_1*%
%TO.N,Net-(J2-Pin_1)*%
X110490000Y-104140000D03*
D11*
%TO.P,J2,2,Pin_2*%
%TO.N,Net-(J2-Pin_2)*%
X107950000Y-104140000D03*
%TO.P,J2,3,Pin_3*%
%TO.N,Net-(J2-Pin_3)*%
X105410000Y-104140000D03*
%TO.P,J2,4,Pin_4*%
%TO.N,Net-(J2-Pin_4)*%
X102870000Y-104140000D03*
%TO.P,J2,5,Pin_5*%
%TO.N,Net-(J2-Pin_5)*%
X100330000Y-104140000D03*
%TO.P,J2,6,Pin_6*%
%TO.N,Net-(J2-Pin_6)*%
X97790000Y-104140000D03*
%TO.P,J2,7,Pin_7*%
%TO.N,Net-(J2-Pin_7)*%
X95250000Y-104140000D03*
%TD*%
D15*
%TO.P,D6,1,VDD*%
%TO.N,Net-(D1-VDD)*%
X178890000Y-78230000D03*
%TO.P,D6,2,DOUT*%
%TO.N,unconnected-(D6-DOUT-Pad2)*%
X178890000Y-74930000D03*
%TO.P,D6,3,VSS*%
%TO.N,Net-(D1-VSS)*%
X173990000Y-74930000D03*
%TO.P,D6,4,DIN*%
%TO.N,Net-(D5-DOUT)*%
X173990000Y-78230000D03*
%TD*%
D18*
%TO.P,SW1,A,A*%
%TO.N,Net-(U1-GPIO13)*%
X89640000Y-90095000D03*
D19*
%TO.P,SW1,B,B*%
%TO.N,Net-(SW1-PadB)*%
X89640000Y-95095000D03*
%TO.P,SW1,C,C*%
%TO.N,Net-(U1-3V3)*%
X89640000Y-92595000D03*
D20*
%TO.P,SW1,MP*%
%TO.N,N/C*%
X97140000Y-86995000D03*
X97140000Y-98195000D03*
D19*
%TO.P,SW1,S1,S1*%
%TO.N,Net-(U1-3V3)*%
X104140000Y-95095000D03*
%TO.P,SW1,S2,S2*%
%TO.N,Net-(U1-GPIO12)*%
X104140000Y-90095000D03*
%TD*%
D15*
%TO.P,D4,1,VDD*%
%TO.N,Net-(D1-VDD)*%
X139338000Y-78230000D03*
%TO.P,D4,2,DOUT*%
%TO.N,Net-(D4-DOUT)*%
X139338000Y-74930000D03*
%TO.P,D4,3,VSS*%
%TO.N,Net-(D1-VSS)*%
X134438000Y-74930000D03*
%TO.P,D4,4,DIN*%
%TO.N,Net-(D3-DOUT)*%
X134438000Y-78230000D03*
%TD*%
%TO.P,D2,1,VDD*%
%TO.N,Net-(D1-VDD)*%
X99786000Y-78230000D03*
%TO.P,D2,2,DOUT*%
%TO.N,Net-(D2-DOUT)*%
X99786000Y-74930000D03*
%TO.P,D2,3,VSS*%
%TO.N,Net-(D1-VSS)*%
X94886000Y-74930000D03*
%TO.P,D2,4,DIN*%
%TO.N,Net-(D1-DOUT)*%
X94886000Y-78230000D03*
%TD*%
D21*
%TO.N,Net-(D1-VDD)*%
X120612000Y-79280000D02*
X119562000Y-78230000D01*
X86360000Y-80010000D02*
X86360000Y-79280000D01*
X81060000Y-79280000D02*
X80010000Y-78230000D01*
X102235000Y-79280000D02*
X100836000Y-79280000D01*
X161290000Y-79280000D02*
X160164000Y-79280000D01*
X100836000Y-79280000D02*
X99786000Y-78230000D01*
X82550000Y-79280000D02*
X81060000Y-79280000D01*
X140970000Y-79280000D02*
X121920000Y-79280000D01*
X102235000Y-79280000D02*
X86360000Y-79280000D01*
X87630000Y-81280000D02*
X86360000Y-80010000D01*
X177840000Y-79280000D02*
X161290000Y-79280000D01*
X86360000Y-79280000D02*
X82550000Y-79280000D01*
X160164000Y-79280000D02*
X159114000Y-78230000D01*
X121920000Y-79280000D02*
X102235000Y-79280000D01*
X121920000Y-79280000D02*
X120612000Y-79280000D01*
X140970000Y-79280000D02*
X140388000Y-79280000D01*
X140388000Y-79280000D02*
X139338000Y-78230000D01*
X178890000Y-78230000D02*
X177840000Y-79280000D01*
X161290000Y-79280000D02*
X140970000Y-79280000D01*
%TO.N,Net-(D1-DOUT)*%
X83310000Y-78230000D02*
X80010000Y-74930000D01*
X94886000Y-78230000D02*
X83310000Y-78230000D01*
%TO.N,Net-(D1-VSS)*%
X153164000Y-73880000D02*
X154214000Y-74930000D01*
X151765000Y-73880000D02*
X153164000Y-73880000D01*
X181610000Y-74295000D02*
X181610000Y-95592031D01*
X174512031Y-102690000D02*
X173175000Y-102690000D01*
X132080000Y-73880000D02*
X133388000Y-73880000D01*
X81180000Y-94690000D02*
X76910000Y-94690000D01*
X72260000Y-90040000D02*
X71880000Y-90040000D01*
X112395000Y-73880000D02*
X132080000Y-73880000D01*
X93836000Y-73880000D02*
X94886000Y-74930000D01*
X113612000Y-73880000D02*
X114662000Y-74930000D01*
X92710000Y-73880000D02*
X93836000Y-73880000D01*
X132080000Y-73880000D02*
X151765000Y-73880000D01*
X151765000Y-73880000D02*
X172940000Y-73880000D01*
X133388000Y-73880000D02*
X134438000Y-74930000D01*
X71755000Y-78285000D02*
X75110000Y-74930000D01*
X172940000Y-73880000D02*
X173990000Y-74930000D01*
X172940000Y-73880000D02*
X181195000Y-73880000D01*
X92710000Y-73880000D02*
X112395000Y-73880000D01*
X181610000Y-95592031D02*
X174512031Y-102690000D01*
X173175000Y-102690000D02*
X172085000Y-103780000D01*
X76910000Y-94690000D02*
X72260000Y-90040000D01*
X75110000Y-74930000D02*
X76160000Y-73880000D01*
X71880000Y-90040000D02*
X71755000Y-89915000D01*
X71755000Y-89915000D02*
X71755000Y-78285000D01*
X172085000Y-103780000D02*
X172085000Y-104140000D01*
X112395000Y-73880000D02*
X113612000Y-73880000D01*
X181195000Y-73880000D02*
X181610000Y-74295000D01*
X76160000Y-73880000D02*
X92710000Y-73880000D01*
%TO.N,Net-(D1-DIN)*%
X75565000Y-78685000D02*
X75110000Y-78230000D01*
X75565000Y-81280000D02*
X75565000Y-78685000D01*
%TO.N,Net-(D2-DOUT)*%
X103086000Y-78230000D02*
X99786000Y-74930000D01*
X114662000Y-78230000D02*
X103086000Y-78230000D01*
%TO.N,Net-(D3-DOUT)*%
X122862000Y-78230000D02*
X119562000Y-74930000D01*
X134438000Y-78230000D02*
X122862000Y-78230000D01*
%TO.N,Net-(D4-DOUT)*%
X142638000Y-78230000D02*
X139338000Y-74930000D01*
X154214000Y-78230000D02*
X142638000Y-78230000D01*
%TO.N,Net-(D5-DOUT)*%
X173990000Y-78230000D02*
X162414000Y-78230000D01*
X162414000Y-78230000D02*
X159114000Y-74930000D01*
%TO.N,Net-(J2-Pin_6)*%
X97790000Y-104140000D02*
X99240000Y-102690000D01*
X99240000Y-102690000D02*
X136525000Y-102690000D01*
X151765000Y-87450000D02*
X151765000Y-86360000D01*
X136525000Y-102690000D02*
X151765000Y-87450000D01*
%TO.N,Net-(J2-Pin_7)*%
X149225000Y-88265000D02*
X149225000Y-86360000D01*
X97790000Y-101600000D02*
X135890000Y-101600000D01*
X95250000Y-104140000D02*
X97790000Y-101600000D01*
X135890000Y-101600000D02*
X149225000Y-88265000D01*
%TO.N,Net-(J4-PadR1)*%
X77280610Y-88190000D02*
X81930610Y-92840000D01*
X81930610Y-92840000D02*
X82380000Y-92840000D01*
X146685000Y-88010000D02*
X146685000Y-86360000D01*
X89805000Y-100600000D02*
X134095000Y-100600000D01*
X87630000Y-98090000D02*
X87630000Y-98425000D01*
X76080000Y-88190000D02*
X77280610Y-88190000D01*
X87630000Y-98425000D02*
X89805000Y-100600000D01*
X82380000Y-92840000D02*
X87630000Y-98090000D01*
X134095000Y-100600000D02*
X146685000Y-88010000D01*
%TO.N,Net-(U1-GPIO10)*%
X75875000Y-85395000D02*
X124765000Y-85395000D01*
X124765000Y-85395000D02*
X127180000Y-87810000D01*
X143897081Y-87810000D02*
X144145000Y-87562081D01*
X127180000Y-87810000D02*
X143897081Y-87810000D01*
X73080000Y-88190000D02*
X75875000Y-85395000D01*
X144145000Y-87562081D02*
X144145000Y-86360000D01*
%TO.N,Net-(U1-GPIO14)*%
X129825000Y-82580000D02*
X131445000Y-84200000D01*
X83185000Y-81280000D02*
X84485000Y-82580000D01*
X131445000Y-84200000D02*
X131445000Y-86360000D01*
X84485000Y-82580000D02*
X129825000Y-82580000D01*
%TO.N,Net-(U1-3V3)*%
X80080000Y-88190000D02*
X84485000Y-92595000D01*
X84485000Y-92595000D02*
X89640000Y-92595000D01*
%TD*%
%TA.AperFunction,NonConductor*%
G36*
X160569702Y-77659647D02*
G01*
X160576169Y-77665669D01*
X160840553Y-77930053D01*
X161078319Y-78167819D01*
X161111804Y-78229142D01*
X161106820Y-78298834D01*
X161064948Y-78354767D01*
X160999484Y-78379184D01*
X160990638Y-78379500D01*
X160588361Y-78379500D01*
X160521322Y-78359815D01*
X160500680Y-78343181D01*
X160400818Y-78243319D01*
X160367333Y-78181996D01*
X160364499Y-78155638D01*
X160364499Y-77753360D01*
X160384184Y-77686321D01*
X160436988Y-77640566D01*
X160506146Y-77630622D01*
X160569702Y-77659647D01*
G37*
%TD.AperFunction*%
%TA.AperFunction,NonConductor*%
G36*
X152806678Y-74800185D02*
G01*
X152827320Y-74816819D01*
X152927181Y-74916680D01*
X152960666Y-74978003D01*
X152963500Y-75004361D01*
X152963500Y-75427870D01*
X152963501Y-75427876D01*
X152969908Y-75487483D01*
X153020202Y-75622328D01*
X153020206Y-75622335D01*
X153106452Y-75737544D01*
X153106455Y-75737547D01*
X153221664Y-75823793D01*
X153221671Y-75823797D01*
X153356517Y-75874091D01*
X153356516Y-75874091D01*
X153363444Y-75874835D01*
X153416127Y-75880500D01*
X155011872Y-75880499D01*
X155071483Y-75874091D01*
X155206331Y-75823796D01*
X155321546Y-75737546D01*
X155407796Y-75622331D01*
X155458091Y-75487483D01*
X155464500Y-75427873D01*
X155464499Y-74904499D01*
X155484183Y-74837461D01*
X155536987Y-74791706D01*
X155588499Y-74780500D01*
X157739500Y-74780500D01*
X157806539Y-74800185D01*
X157852294Y-74852989D01*
X157863500Y-74904500D01*
X157863500Y-75427870D01*
X157863501Y-75427876D01*
X157869908Y-75487483D01*
X157920202Y-75622328D01*
X157920206Y-75622335D01*
X158006452Y-75737544D01*
X158006455Y-75737547D01*
X158121664Y-75823793D01*
X158121671Y-75823797D01*
X158166618Y-75840561D01*
X158256517Y-75874091D01*
X158316127Y-75880500D01*
X158739638Y-75880499D01*
X158806677Y-75900183D01*
X158827319Y-75916818D01*
X159978319Y-77067819D01*
X160011804Y-77129142D01*
X160006820Y-77198834D01*
X159964948Y-77254767D01*
X159899484Y-77279184D01*
X159890638Y-77279500D01*
X158316129Y-77279500D01*
X158316123Y-77279501D01*
X158256516Y-77285908D01*
X158121671Y-77336202D01*
X158121664Y-77336206D01*
X158006455Y-77422452D01*
X158006452Y-77422455D01*
X157920206Y-77537664D01*
X157920202Y-77537671D01*
X157872740Y-77664926D01*
X157869909Y-77672517D01*
X157863500Y-77732127D01*
X157863500Y-78030692D01*
X157863501Y-78255500D01*
X157843817Y-78322539D01*
X157791013Y-78368294D01*
X157739501Y-78379500D01*
X155588500Y-78379500D01*
X155521461Y-78359815D01*
X155475706Y-78307011D01*
X155464500Y-78255500D01*
X155464499Y-77732129D01*
X155464498Y-77732123D01*
X155464497Y-77732116D01*
X155458091Y-77672517D01*
X155454807Y-77663713D01*
X155407797Y-77537671D01*
X155407793Y-77537664D01*
X155321547Y-77422455D01*
X155321544Y-77422452D01*
X155206335Y-77336206D01*
X155206328Y-77336202D01*
X155071482Y-77285908D01*
X155071483Y-77285908D01*
X155011883Y-77279501D01*
X155011881Y-77279500D01*
X155011873Y-77279500D01*
X155011864Y-77279500D01*
X153416129Y-77279500D01*
X153416123Y-77279501D01*
X153356516Y-77285908D01*
X153260604Y-77321682D01*
X153217271Y-77329500D01*
X143062362Y-77329500D01*
X142995323Y-77309815D01*
X142974681Y-77293181D01*
X140673680Y-74992181D01*
X140640195Y-74930858D01*
X140645179Y-74861166D01*
X140687051Y-74805233D01*
X140752515Y-74780816D01*
X140761361Y-74780500D01*
X151717808Y-74780500D01*
X152739639Y-74780500D01*
X152806678Y-74800185D01*
G37*
%TD.AperFunction*%
%TA.AperFunction,NonConductor*%
G36*
X140793702Y-77659647D02*
G01*
X140800169Y-77665669D01*
X141064553Y-77930053D01*
X141302319Y-78167819D01*
X141335804Y-78229142D01*
X141330820Y-78298834D01*
X141288948Y-78354767D01*
X141223484Y-78379184D01*
X141214638Y-78379500D01*
X140812361Y-78379500D01*
X140745322Y-78359815D01*
X140724680Y-78343181D01*
X140624818Y-78243319D01*
X140591333Y-78181996D01*
X140588499Y-78155638D01*
X140588499Y-77753360D01*
X140608184Y-77686321D01*
X140660988Y-77640566D01*
X140730146Y-77630622D01*
X140793702Y-77659647D01*
G37*
%TD.AperFunction*%
%TA.AperFunction,NonConductor*%
G36*
X133030678Y-74800185D02*
G01*
X133051320Y-74816819D01*
X133151181Y-74916680D01*
X133184666Y-74978003D01*
X133187500Y-75004361D01*
X133187500Y-75427870D01*
X133187501Y-75427876D01*
X133193908Y-75487483D01*
X133244202Y-75622328D01*
X133244206Y-75622335D01*
X133330452Y-75737544D01*
X133330455Y-75737547D01*
X133445664Y-75823793D01*
X133445671Y-75823797D01*
X133580517Y-75874091D01*
X133580516Y-75874091D01*
X133587444Y-75874835D01*
X133640127Y-75880500D01*
X135235872Y-75880499D01*
X135295483Y-75874091D01*
X135430331Y-75823796D01*
X135545546Y-75737546D01*
X135631796Y-75622331D01*
X135682091Y-75487483D01*
X135688500Y-75427873D01*
X135688499Y-74904499D01*
X135708183Y-74837461D01*
X135760987Y-74791706D01*
X135812499Y-74780500D01*
X137963500Y-74780500D01*
X138030539Y-74800185D01*
X138076294Y-74852989D01*
X138087500Y-74904500D01*
X138087500Y-75427870D01*
X138087501Y-75427876D01*
X138093908Y-75487483D01*
X138144202Y-75622328D01*
X138144206Y-75622335D01*
X138230452Y-75737544D01*
X138230455Y-75737547D01*
X138345664Y-75823793D01*
X138345671Y-75823797D01*
X138390618Y-75840561D01*
X138480517Y-75874091D01*
X138540127Y-75880500D01*
X138963638Y-75880499D01*
X139030677Y-75900183D01*
X139051319Y-75916818D01*
X140202319Y-77067819D01*
X140235804Y-77129142D01*
X140230820Y-77198834D01*
X140188948Y-77254767D01*
X140123484Y-77279184D01*
X140114638Y-77279500D01*
X138540129Y-77279500D01*
X138540123Y-77279501D01*
X138480516Y-77285908D01*
X138345671Y-77336202D01*
X138345664Y-77336206D01*
X138230455Y-77422452D01*
X138230452Y-77422455D01*
X138144206Y-77537664D01*
X138144202Y-77537671D01*
X138096740Y-77664926D01*
X138093909Y-77672517D01*
X138087500Y-77732127D01*
X138087500Y-78030692D01*
X138087501Y-78255500D01*
X138067817Y-78322539D01*
X138015013Y-78368294D01*
X137963501Y-78379500D01*
X135812500Y-78379500D01*
X135745461Y-78359815D01*
X135699706Y-78307011D01*
X135688500Y-78255500D01*
X135688499Y-77732129D01*
X135688498Y-77732123D01*
X135688497Y-77732116D01*
X135682091Y-77672517D01*
X135678807Y-77663713D01*
X135631797Y-77537671D01*
X135631793Y-77537664D01*
X135545547Y-77422455D01*
X135545544Y-77422452D01*
X135430335Y-77336206D01*
X135430328Y-77336202D01*
X135295482Y-77285908D01*
X135295483Y-77285908D01*
X135235883Y-77279501D01*
X135235881Y-77279500D01*
X135235873Y-77279500D01*
X135235864Y-77279500D01*
X133640129Y-77279500D01*
X133640123Y-77279501D01*
X133580516Y-77285908D01*
X133484604Y-77321682D01*
X133441271Y-77329500D01*
X123286362Y-77329500D01*
X123219323Y-77309815D01*
X123198681Y-77293181D01*
X120897680Y-74992181D01*
X120864195Y-74930858D01*
X120869179Y-74861166D01*
X120911051Y-74805233D01*
X120976515Y-74780816D01*
X120985361Y-74780500D01*
X132032808Y-74780500D01*
X132963639Y-74780500D01*
X133030678Y-74800185D01*
G37*
%TD.AperFunction*%
%TA.AperFunction,NonConductor*%
G36*
X121017702Y-77659647D02*
G01*
X121024169Y-77665669D01*
X121288553Y-77930053D01*
X121526319Y-78167819D01*
X121559804Y-78229142D01*
X121554820Y-78298834D01*
X121512948Y-78354767D01*
X121447484Y-78379184D01*
X121438638Y-78379500D01*
X121036361Y-78379500D01*
X120969322Y-78359815D01*
X120948680Y-78343181D01*
X120848818Y-78243319D01*
X120815333Y-78181996D01*
X120812499Y-78155638D01*
X120812499Y-77753360D01*
X120832184Y-77686321D01*
X120884988Y-77640566D01*
X120954146Y-77630622D01*
X121017702Y-77659647D01*
G37*
%TD.AperFunction*%
%TA.AperFunction,NonConductor*%
G36*
X113254678Y-74800185D02*
G01*
X113275320Y-74816819D01*
X113375181Y-74916680D01*
X113408666Y-74978003D01*
X113411500Y-75004361D01*
X113411500Y-75427870D01*
X113411501Y-75427876D01*
X113417908Y-75487483D01*
X113468202Y-75622328D01*
X113468206Y-75622335D01*
X113554452Y-75737544D01*
X113554455Y-75737547D01*
X113669664Y-75823793D01*
X113669671Y-75823797D01*
X113804517Y-75874091D01*
X113804516Y-75874091D01*
X113811444Y-75874835D01*
X113864127Y-75880500D01*
X115459872Y-75880499D01*
X115519483Y-75874091D01*
X115654331Y-75823796D01*
X115769546Y-75737546D01*
X115855796Y-75622331D01*
X115906091Y-75487483D01*
X115912500Y-75427873D01*
X115912499Y-74904499D01*
X115932183Y-74837461D01*
X115984987Y-74791706D01*
X116036499Y-74780500D01*
X118187500Y-74780500D01*
X118254539Y-74800185D01*
X118300294Y-74852989D01*
X118311500Y-74904500D01*
X118311500Y-75427870D01*
X118311501Y-75427876D01*
X118317908Y-75487483D01*
X118368202Y-75622328D01*
X118368206Y-75622335D01*
X118454452Y-75737544D01*
X118454455Y-75737547D01*
X118569664Y-75823793D01*
X118569671Y-75823797D01*
X118614618Y-75840561D01*
X118704517Y-75874091D01*
X118764127Y-75880500D01*
X119187638Y-75880499D01*
X119254677Y-75900183D01*
X119275319Y-75916818D01*
X120426319Y-77067819D01*
X120459804Y-77129142D01*
X120454820Y-77198834D01*
X120412948Y-77254767D01*
X120347484Y-77279184D01*
X120338638Y-77279500D01*
X118764129Y-77279500D01*
X118764123Y-77279501D01*
X118704516Y-77285908D01*
X118569671Y-77336202D01*
X118569664Y-77336206D01*
X118454455Y-77422452D01*
X118454452Y-77422455D01*
X118368206Y-77537664D01*
X118368202Y-77537671D01*
X118320740Y-77664926D01*
X118317909Y-77672517D01*
X118311500Y-77732127D01*
X118311500Y-78030692D01*
X118311501Y-78255500D01*
X118291817Y-78322539D01*
X118239013Y-78368294D01*
X118187501Y-78379500D01*
X116036500Y-78379500D01*
X115969461Y-78359815D01*
X115923706Y-78307011D01*
X115912500Y-78255500D01*
X115912499Y-77732129D01*
X115912498Y-77732123D01*
X115912497Y-77732116D01*
X115906091Y-77672517D01*
X115902807Y-77663713D01*
X115855797Y-77537671D01*
X115855793Y-77537664D01*
X115769547Y-77422455D01*
X115769544Y-77422452D01*
X115654335Y-77336206D01*
X115654328Y-77336202D01*
X115519482Y-77285908D01*
X115519483Y-77285908D01*
X115459883Y-77279501D01*
X115459881Y-77279500D01*
X115459873Y-77279500D01*
X115459864Y-77279500D01*
X113864129Y-77279500D01*
X113864123Y-77279501D01*
X113804516Y-77285908D01*
X113708604Y-77321682D01*
X113665271Y-77329500D01*
X103510362Y-77329500D01*
X103443323Y-77309815D01*
X103422681Y-77293181D01*
X101121680Y-74992181D01*
X101088195Y-74930858D01*
X101093179Y-74861166D01*
X101135051Y-74805233D01*
X101200515Y-74780816D01*
X101209361Y-74780500D01*
X112347808Y-74780500D01*
X113187639Y-74780500D01*
X113254678Y-74800185D01*
G37*
%TD.AperFunction*%
%TA.AperFunction,NonConductor*%
G36*
X101241702Y-77659647D02*
G01*
X101248169Y-77665669D01*
X101512553Y-77930053D01*
X101750319Y-78167819D01*
X101783804Y-78229142D01*
X101778820Y-78298834D01*
X101736948Y-78354767D01*
X101671484Y-78379184D01*
X101662638Y-78379500D01*
X101260361Y-78379500D01*
X101193322Y-78359815D01*
X101172680Y-78343181D01*
X101072818Y-78243319D01*
X101039333Y-78181996D01*
X101036499Y-78155638D01*
X101036499Y-77753360D01*
X101056184Y-77686321D01*
X101108988Y-77640566D01*
X101178146Y-77630622D01*
X101241702Y-77659647D01*
G37*
%TD.AperFunction*%
%TA.AperFunction,NonConductor*%
G36*
X93478678Y-74800185D02*
G01*
X93499320Y-74816819D01*
X93599181Y-74916680D01*
X93632666Y-74978003D01*
X93635500Y-75004361D01*
X93635500Y-75427870D01*
X93635501Y-75427876D01*
X93641908Y-75487483D01*
X93692202Y-75622328D01*
X93692206Y-75622335D01*
X93778452Y-75737544D01*
X93778455Y-75737547D01*
X93893664Y-75823793D01*
X93893671Y-75823797D01*
X94028517Y-75874091D01*
X94028516Y-75874091D01*
X94035444Y-75874835D01*
X94088127Y-75880500D01*
X95683872Y-75880499D01*
X95743483Y-75874091D01*
X95878331Y-75823796D01*
X95993546Y-75737546D01*
X96079796Y-75622331D01*
X96130091Y-75487483D01*
X96136500Y-75427873D01*
X96136499Y-74904499D01*
X96156183Y-74837461D01*
X96208987Y-74791706D01*
X96260499Y-74780500D01*
X98411500Y-74780500D01*
X98478539Y-74800185D01*
X98524294Y-74852989D01*
X98535500Y-74904500D01*
X98535500Y-75427870D01*
X98535501Y-75427876D01*
X98541908Y-75487483D01*
X98592202Y-75622328D01*
X98592206Y-75622335D01*
X98678452Y-75737544D01*
X98678455Y-75737547D01*
X98793664Y-75823793D01*
X98793671Y-75823797D01*
X98838618Y-75840561D01*
X98928517Y-75874091D01*
X98988127Y-75880500D01*
X99411638Y-75880499D01*
X99478677Y-75900183D01*
X99499319Y-75916818D01*
X100650319Y-77067819D01*
X100683804Y-77129142D01*
X100678820Y-77198834D01*
X100636948Y-77254767D01*
X100571484Y-77279184D01*
X100562638Y-77279500D01*
X98988129Y-77279500D01*
X98988123Y-77279501D01*
X98928516Y-77285908D01*
X98793671Y-77336202D01*
X98793664Y-77336206D01*
X98678455Y-77422452D01*
X98678452Y-77422455D01*
X98592206Y-77537664D01*
X98592202Y-77537671D01*
X98544740Y-77664926D01*
X98541909Y-77672517D01*
X98535500Y-77732127D01*
X98535500Y-78030692D01*
X98535501Y-78255500D01*
X98515817Y-78322539D01*
X98463013Y-78368294D01*
X98411501Y-78379500D01*
X96260500Y-78379500D01*
X96193461Y-78359815D01*
X96147706Y-78307011D01*
X96136500Y-78255500D01*
X96136499Y-77732129D01*
X96136498Y-77732123D01*
X96136497Y-77732116D01*
X96130091Y-77672517D01*
X96126807Y-77663713D01*
X96079797Y-77537671D01*
X96079793Y-77537664D01*
X95993547Y-77422455D01*
X95993544Y-77422452D01*
X95878335Y-77336206D01*
X95878328Y-77336202D01*
X95743482Y-77285908D01*
X95743483Y-77285908D01*
X95683883Y-77279501D01*
X95683881Y-77279500D01*
X95683873Y-77279500D01*
X95683864Y-77279500D01*
X94088129Y-77279500D01*
X94088123Y-77279501D01*
X94028516Y-77285908D01*
X93932604Y-77321682D01*
X93889271Y-77329500D01*
X83734362Y-77329500D01*
X83667323Y-77309815D01*
X83646681Y-77293181D01*
X81345680Y-74992181D01*
X81312195Y-74930858D01*
X81317179Y-74861166D01*
X81359051Y-74805233D01*
X81424515Y-74780816D01*
X81433361Y-74780500D01*
X92662808Y-74780500D01*
X93411639Y-74780500D01*
X93478678Y-74800185D01*
G37*
%TD.AperFunction*%
%TA.AperFunction,NonConductor*%
G36*
X81465702Y-77659647D02*
G01*
X81472169Y-77665669D01*
X81736553Y-77930053D01*
X81974319Y-78167819D01*
X82007804Y-78229142D01*
X82002820Y-78298834D01*
X81960948Y-78354767D01*
X81895484Y-78379184D01*
X81886638Y-78379500D01*
X81484361Y-78379500D01*
X81417322Y-78359815D01*
X81396680Y-78343181D01*
X81296818Y-78243319D01*
X81263333Y-78181996D01*
X81260499Y-78155638D01*
X81260499Y-77753360D01*
X81280184Y-77686321D01*
X81332988Y-77640566D01*
X81402146Y-77630622D01*
X81465702Y-77659647D01*
G37*
%TD.AperFunction*%
%TA.AperFunction,NonConductor*%
G36*
X94421090Y-80200185D02*
G01*
X94466845Y-80252989D01*
X94476789Y-80322147D01*
X94447764Y-80385703D01*
X94437590Y-80396137D01*
X94359018Y-80467764D01*
X94224943Y-80645308D01*
X94224938Y-80645316D01*
X94125775Y-80844461D01*
X94125769Y-80844476D01*
X94064885Y-81058462D01*
X94064884Y-81058464D01*
X94044357Y-81279999D01*
X94044357Y-81280000D01*
X94064884Y-81501535D01*
X94070584Y-81521565D01*
X94069998Y-81591433D01*
X94031731Y-81649891D01*
X93967934Y-81678382D01*
X93951318Y-81679500D01*
X88928682Y-81679500D01*
X88861643Y-81659815D01*
X88815888Y-81607011D01*
X88805944Y-81537853D01*
X88809416Y-81521565D01*
X88815115Y-81501536D01*
X88835643Y-81280000D01*
X88815115Y-81058464D01*
X88754229Y-80844472D01*
X88754224Y-80844461D01*
X88655061Y-80645316D01*
X88655056Y-80645308D01*
X88520981Y-80467764D01*
X88442410Y-80396137D01*
X88406129Y-80336425D01*
X88407890Y-80266578D01*
X88447134Y-80208770D01*
X88511401Y-80181356D01*
X88525949Y-80180500D01*
X94354051Y-80180500D01*
X94421090Y-80200185D01*
G37*
%TD.AperFunction*%
%TA.AperFunction,NonConductor*%
G36*
X85445309Y-80200185D02*
G01*
X85491064Y-80252989D01*
X85498044Y-80272405D01*
X85514678Y-80334484D01*
X85514684Y-80334498D01*
X85521043Y-80346978D01*
X85528488Y-80364949D01*
X85532821Y-80378284D01*
X85547918Y-80404432D01*
X85567537Y-80438414D01*
X85569085Y-80441266D01*
X85589010Y-80480369D01*
X85600617Y-80503149D01*
X85600619Y-80503151D01*
X85600620Y-80503153D01*
X85609438Y-80514043D01*
X85620454Y-80530070D01*
X85627465Y-80542213D01*
X85627470Y-80542220D01*
X85673939Y-80593831D01*
X85676043Y-80596295D01*
X85689882Y-80613382D01*
X85705423Y-80628922D01*
X85707657Y-80631277D01*
X85754128Y-80682887D01*
X85765468Y-80691126D01*
X85780265Y-80703764D01*
X86399627Y-81323126D01*
X86433112Y-81384449D01*
X86435417Y-81399365D01*
X86444884Y-81501535D01*
X86450584Y-81521565D01*
X86449998Y-81591433D01*
X86411731Y-81649891D01*
X86347934Y-81678382D01*
X86331318Y-81679500D01*
X84909362Y-81679500D01*
X84842323Y-81659815D01*
X84821681Y-81643181D01*
X84415372Y-81236872D01*
X84381887Y-81175549D01*
X84379582Y-81160632D01*
X84370115Y-81058464D01*
X84370114Y-81058462D01*
X84309230Y-80844476D01*
X84309229Y-80844472D01*
X84309224Y-80844461D01*
X84210061Y-80645316D01*
X84210056Y-80645308D01*
X84075981Y-80467764D01*
X83997410Y-80396137D01*
X83961129Y-80336425D01*
X83962890Y-80266578D01*
X84002134Y-80208770D01*
X84066401Y-80181356D01*
X84080949Y-80180500D01*
X85378270Y-80180500D01*
X85445309Y-80200185D01*
G37*
%TD.AperFunction*%
%TA.AperFunction,NonConductor*%
G36*
X78702539Y-74800185D02*
G01*
X78748294Y-74852989D01*
X78759500Y-74904500D01*
X78759500Y-75427870D01*
X78759501Y-75427876D01*
X78765908Y-75487483D01*
X78816202Y-75622328D01*
X78816206Y-75622335D01*
X78902452Y-75737544D01*
X78902455Y-75737547D01*
X79017664Y-75823793D01*
X79017671Y-75823797D01*
X79062618Y-75840560D01*
X79152517Y-75874091D01*
X79212127Y-75880500D01*
X79635638Y-75880499D01*
X79702677Y-75900183D01*
X79723319Y-75916818D01*
X80874319Y-77067819D01*
X80907804Y-77129142D01*
X80902820Y-77198834D01*
X80860948Y-77254767D01*
X80795484Y-77279184D01*
X80786638Y-77279500D01*
X79212129Y-77279500D01*
X79212123Y-77279501D01*
X79152516Y-77285908D01*
X79017671Y-77336202D01*
X79017664Y-77336206D01*
X78902455Y-77422452D01*
X78902452Y-77422455D01*
X78816206Y-77537664D01*
X78816202Y-77537671D01*
X78765908Y-77672517D01*
X78762828Y-77701172D01*
X78759501Y-77732123D01*
X78759500Y-77732135D01*
X78759500Y-78727870D01*
X78759501Y-78727876D01*
X78765908Y-78787483D01*
X78816202Y-78922328D01*
X78816206Y-78922335D01*
X78902452Y-79037544D01*
X78902455Y-79037547D01*
X79017664Y-79123793D01*
X79017671Y-79123797D01*
X79062618Y-79140560D01*
X79152517Y-79174091D01*
X79212127Y-79180500D01*
X79635638Y-79180499D01*
X79702677Y-79200183D01*
X79723319Y-79216818D01*
X80366235Y-79859734D01*
X80378869Y-79874525D01*
X80387112Y-79885871D01*
X80387113Y-79885872D01*
X80438722Y-79932341D01*
X80441071Y-79934570D01*
X80456620Y-79950119D01*
X80473684Y-79963938D01*
X80473702Y-79963952D01*
X80476170Y-79966060D01*
X80527781Y-80012531D01*
X80527782Y-80012531D01*
X80527784Y-80012533D01*
X80527786Y-80012534D01*
X80539918Y-80019538D01*
X80555955Y-80030560D01*
X80566849Y-80039382D01*
X80566851Y-80039383D01*
X80628747Y-80070920D01*
X80631552Y-80072443D01*
X80650998Y-80083670D01*
X80691707Y-80107175D01*
X80691715Y-80107178D01*
X80691716Y-80107179D01*
X80705046Y-80111510D01*
X80723019Y-80118954D01*
X80735512Y-80125320D01*
X80802590Y-80143292D01*
X80805699Y-80144214D01*
X80818933Y-80148514D01*
X80871744Y-80165674D01*
X80882116Y-80166763D01*
X80885684Y-80167139D01*
X80904825Y-80170687D01*
X80918348Y-80174311D01*
X80918354Y-80174312D01*
X80987711Y-80177946D01*
X80990921Y-80178199D01*
X81012808Y-80180500D01*
X81034803Y-80180500D01*
X81038046Y-80180584D01*
X81107388Y-80184219D01*
X81121227Y-80182027D01*
X81140627Y-80180500D01*
X82289051Y-80180500D01*
X82356090Y-80200185D01*
X82401845Y-80252989D01*
X82411789Y-80322147D01*
X82382764Y-80385703D01*
X82372590Y-80396137D01*
X82294018Y-80467764D01*
X82159943Y-80645308D01*
X82159938Y-80645316D01*
X82060775Y-80844461D01*
X82060769Y-80844476D01*
X81999885Y-81058462D01*
X81999884Y-81058464D01*
X81979357Y-81279999D01*
X81979357Y-81280000D01*
X81999884Y-81501535D01*
X81999885Y-81501537D01*
X82060769Y-81715523D01*
X82060775Y-81715538D01*
X82159938Y-81914683D01*
X82159943Y-81914691D01*
X82294020Y-82092238D01*
X82458437Y-82242123D01*
X82458439Y-82242125D01*
X82647595Y-82359245D01*
X82647596Y-82359245D01*
X82647599Y-82359247D01*
X82855060Y-82439618D01*
X83073757Y-82480500D01*
X83073759Y-82480500D01*
X83079392Y-82481553D01*
X83079056Y-82483349D01*
X83136243Y-82506045D01*
X83147565Y-82516064D01*
X83791236Y-83159736D01*
X83803871Y-83174529D01*
X83812110Y-83185869D01*
X83812112Y-83185871D01*
X83863730Y-83232348D01*
X83866068Y-83234568D01*
X83881620Y-83250120D01*
X83898716Y-83263964D01*
X83901168Y-83266058D01*
X83923887Y-83286514D01*
X83952784Y-83312533D01*
X83960633Y-83317065D01*
X83964920Y-83319540D01*
X83980952Y-83330557D01*
X83991851Y-83339383D01*
X84053714Y-83370903D01*
X84056569Y-83372453D01*
X84116707Y-83407174D01*
X84116712Y-83407177D01*
X84116713Y-83407177D01*
X84116716Y-83407179D01*
X84130050Y-83411511D01*
X84148022Y-83418956D01*
X84160512Y-83425320D01*
X84160514Y-83425320D01*
X84160515Y-83425321D01*
X84178928Y-83430254D01*
X84227601Y-83443296D01*
X84230682Y-83444209D01*
X84296744Y-83465674D01*
X84310688Y-83467139D01*
X84329814Y-83470685D01*
X84339441Y-83473264D01*
X84343355Y-83474313D01*
X84412720Y-83477947D01*
X84415935Y-83478200D01*
X84437808Y-83480500D01*
X84459798Y-83480500D01*
X84463041Y-83480584D01*
X84532388Y-83484219D01*
X84546227Y-83482027D01*
X84565627Y-83480500D01*
X127435981Y-83480500D01*
X127503020Y-83500185D01*
X127548775Y-83552989D01*
X127559270Y-83617753D01*
X127554500Y-83662127D01*
X127554500Y-83662128D01*
X127554500Y-83662132D01*
X127554500Y-86298319D01*
X127554264Y-86303720D01*
X127549341Y-86360000D01*
X127553118Y-86403181D01*
X127554264Y-86416274D01*
X127554500Y-86421680D01*
X127554500Y-86611638D01*
X127534815Y-86678677D01*
X127482011Y-86724432D01*
X127412853Y-86734376D01*
X127349297Y-86705351D01*
X127342819Y-86699319D01*
X125458764Y-84815265D01*
X125446126Y-84800468D01*
X125437887Y-84789128D01*
X125386277Y-84742657D01*
X125383922Y-84740423D01*
X125368382Y-84724882D01*
X125351295Y-84711043D01*
X125348831Y-84708939D01*
X125297220Y-84662470D01*
X125297213Y-84662465D01*
X125285070Y-84655454D01*
X125269043Y-84644438D01*
X125258153Y-84635620D01*
X125258151Y-84635619D01*
X125258149Y-84635617D01*
X125239259Y-84625992D01*
X125196266Y-84604085D01*
X125193414Y-84602537D01*
X125133282Y-84567820D01*
X125119949Y-84563488D01*
X125101978Y-84556043D01*
X125089498Y-84549684D01*
X125089486Y-84549679D01*
X125022409Y-84531705D01*
X125019309Y-84530787D01*
X124953256Y-84509326D01*
X124953251Y-84509325D01*
X124953249Y-84509325D01*
X124939314Y-84507860D01*
X124920189Y-84504315D01*
X124906653Y-84500688D01*
X124906643Y-84500686D01*
X124837290Y-84497051D01*
X124834059Y-84496797D01*
X124819537Y-84495271D01*
X124812192Y-84494500D01*
X124812189Y-84494500D01*
X124790203Y-84494500D01*
X124786959Y-84494415D01*
X124717612Y-84490781D01*
X124717611Y-84490781D01*
X124703772Y-84492973D01*
X124684373Y-84494500D01*
X75955627Y-84494500D01*
X75936228Y-84492973D01*
X75922388Y-84490781D01*
X75853041Y-84494415D01*
X75849798Y-84494500D01*
X75827808Y-84494500D01*
X75821559Y-84495156D01*
X75805941Y-84496797D01*
X75802710Y-84497051D01*
X75733358Y-84500686D01*
X75733353Y-84500687D01*
X75719803Y-84504317D01*
X75700691Y-84507859D01*
X75686749Y-84509325D01*
X75686737Y-84509327D01*
X75634469Y-84526310D01*
X75620687Y-84530788D01*
X75617607Y-84531701D01*
X75580695Y-84541591D01*
X75550514Y-84549679D01*
X75538020Y-84556045D01*
X75520053Y-84563487D01*
X75506714Y-84567821D01*
X75446591Y-84602533D01*
X75443740Y-84604081D01*
X75381850Y-84635617D01*
X75370951Y-84644442D01*
X75354931Y-84655452D01*
X75342787Y-84662464D01*
X75342783Y-84662467D01*
X75291190Y-84708921D01*
X75288726Y-84711026D01*
X75271620Y-84724879D01*
X75256056Y-84740443D01*
X75253723Y-84742657D01*
X75232206Y-84762030D01*
X75202113Y-84789127D01*
X75202105Y-84789136D01*
X75193872Y-84800468D01*
X75181238Y-84815260D01*
X73593319Y-86403181D01*
X73531996Y-86436666D01*
X73505638Y-86439500D01*
X72779500Y-86439500D01*
X72712461Y-86419815D01*
X72666706Y-86367011D01*
X72655500Y-86315500D01*
X72655500Y-78709361D01*
X72675185Y-78642322D01*
X72691819Y-78621680D01*
X73157861Y-78155638D01*
X73647821Y-77665677D01*
X73709142Y-77632194D01*
X73778833Y-77637178D01*
X73834767Y-77679050D01*
X73859184Y-77744514D01*
X73859500Y-77753360D01*
X73859500Y-78727870D01*
X73859501Y-78727876D01*
X73865908Y-78787483D01*
X73916202Y-78922328D01*
X73916206Y-78922335D01*
X74002452Y-79037544D01*
X74002455Y-79037547D01*
X74117664Y-79123793D01*
X74117671Y-79123797D01*
X74162618Y-79140560D01*
X74252517Y-79174091D01*
X74312127Y-79180500D01*
X74540500Y-79180499D01*
X74607539Y-79200183D01*
X74653294Y-79252987D01*
X74664500Y-79304499D01*
X74664500Y-80438808D01*
X74644815Y-80505847D01*
X74639454Y-80513534D01*
X74539947Y-80645302D01*
X74539938Y-80645316D01*
X74440775Y-80844461D01*
X74440769Y-80844476D01*
X74379885Y-81058462D01*
X74379884Y-81058464D01*
X74359357Y-81279999D01*
X74359357Y-81280000D01*
X74379884Y-81501535D01*
X74379885Y-81501537D01*
X74440769Y-81715523D01*
X74440775Y-81715538D01*
X74539938Y-81914683D01*
X74539943Y-81914691D01*
X74674020Y-82092238D01*
X74838437Y-82242123D01*
X74838439Y-82242125D01*
X75027595Y-82359245D01*
X75027596Y-82359245D01*
X75027599Y-82359247D01*
X75235060Y-82439618D01*
X75453757Y-82480500D01*
X75453759Y-82480500D01*
X75676241Y-82480500D01*
X75676243Y-82480500D01*
X75894940Y-82439618D01*
X76102401Y-82359247D01*
X76291562Y-82242124D01*
X76455981Y-82092236D01*
X76590058Y-81914689D01*
X76689229Y-81715528D01*
X76750115Y-81501536D01*
X76770643Y-81280000D01*
X76750115Y-81058464D01*
X76689229Y-80844472D01*
X76689224Y-80844461D01*
X76590061Y-80645316D01*
X76590052Y-80645302D01*
X76490546Y-80513534D01*
X76465854Y-80448173D01*
X76465500Y-80438808D01*
X76465500Y-78765626D01*
X76467027Y-78746225D01*
X76469219Y-78732388D01*
X76465585Y-78663047D01*
X76465500Y-78659802D01*
X76465500Y-78637813D01*
X76465500Y-78637808D01*
X76463199Y-78615921D01*
X76462946Y-78612711D01*
X76459312Y-78543354D01*
X76459311Y-78543348D01*
X76455687Y-78529825D01*
X76452139Y-78510684D01*
X76450674Y-78496748D01*
X76450674Y-78496747D01*
X76450674Y-78496744D01*
X76429214Y-78430699D01*
X76428291Y-78427585D01*
X76410320Y-78360512D01*
X76403954Y-78348019D01*
X76396508Y-78330042D01*
X76394070Y-78322539D01*
X76392179Y-78316716D01*
X76392178Y-78316714D01*
X76392176Y-78316709D01*
X76377112Y-78290618D01*
X76360499Y-78228618D01*
X76360499Y-77732129D01*
X76360498Y-77732123D01*
X76360497Y-77732116D01*
X76354091Y-77672517D01*
X76350807Y-77663713D01*
X76303797Y-77537671D01*
X76303793Y-77537664D01*
X76217547Y-77422455D01*
X76217544Y-77422452D01*
X76102335Y-77336206D01*
X76102328Y-77336202D01*
X75967482Y-77285908D01*
X75967483Y-77285908D01*
X75907883Y-77279501D01*
X75907881Y-77279500D01*
X75907873Y-77279500D01*
X75907865Y-77279500D01*
X74333360Y-77279500D01*
X74266321Y-77259815D01*
X74220566Y-77207011D01*
X74210622Y-77137853D01*
X74239647Y-77074297D01*
X74245665Y-77067833D01*
X75396681Y-75916818D01*
X75458004Y-75883333D01*
X75484362Y-75880499D01*
X75907871Y-75880499D01*
X75907872Y-75880499D01*
X75967483Y-75874091D01*
X76102331Y-75823796D01*
X76217546Y-75737546D01*
X76303796Y-75622331D01*
X76354091Y-75487483D01*
X76360500Y-75427873D01*
X76360499Y-75004360D01*
X76380183Y-74937322D01*
X76396812Y-74916685D01*
X76496681Y-74816817D01*
X76558004Y-74783334D01*
X76584361Y-74780500D01*
X78635500Y-74780500D01*
X78702539Y-74800185D01*
G37*
%TD.AperFunction*%
%TA.AperFunction,NonConductor*%
G36*
X79200257Y-86315185D02*
G01*
X79246012Y-86367989D01*
X79255956Y-86437147D01*
X79226931Y-86500703D01*
X79207529Y-86518766D01*
X79122455Y-86582452D01*
X79122452Y-86582455D01*
X79036206Y-86697664D01*
X79036202Y-86697671D01*
X78985908Y-86832517D01*
X78979501Y-86892116D01*
X78979501Y-86892123D01*
X78979500Y-86892135D01*
X78979500Y-88316029D01*
X78959815Y-88383068D01*
X78907011Y-88428823D01*
X78837853Y-88438767D01*
X78774297Y-88409742D01*
X78767819Y-88403710D01*
X77974374Y-87610265D01*
X77961736Y-87595468D01*
X77953497Y-87584128D01*
X77901887Y-87537657D01*
X77899532Y-87535423D01*
X77883992Y-87519882D01*
X77866905Y-87506043D01*
X77864441Y-87503939D01*
X77812830Y-87457470D01*
X77812823Y-87457465D01*
X77800680Y-87450454D01*
X77784653Y-87439438D01*
X77773763Y-87430620D01*
X77773761Y-87430619D01*
X77773759Y-87430617D01*
X77754869Y-87420992D01*
X77711876Y-87399085D01*
X77709024Y-87397537D01*
X77648892Y-87362820D01*
X77635559Y-87358488D01*
X77617588Y-87351043D01*
X77605108Y-87344684D01*
X77605096Y-87344679D01*
X77538019Y-87326705D01*
X77534919Y-87325787D01*
X77468866Y-87304326D01*
X77468861Y-87304325D01*
X77468859Y-87304325D01*
X77454924Y-87302860D01*
X77435799Y-87299315D01*
X77422263Y-87295688D01*
X77422253Y-87295686D01*
X77352900Y-87292051D01*
X77349669Y-87291797D01*
X77335147Y-87290271D01*
X77327802Y-87289500D01*
X77327799Y-87289500D01*
X77305812Y-87289500D01*
X77302572Y-87289415D01*
X77298005Y-87289175D01*
X77232089Y-87266008D01*
X77189162Y-87210881D01*
X77180499Y-87165346D01*
X77180499Y-86892129D01*
X77180498Y-86892123D01*
X77180497Y-86892116D01*
X77174091Y-86832517D01*
X77124411Y-86699319D01*
X77123797Y-86697671D01*
X77123793Y-86697664D01*
X77037547Y-86582455D01*
X77037544Y-86582452D01*
X76952471Y-86518766D01*
X76910600Y-86462832D01*
X76905616Y-86393141D01*
X76939102Y-86331818D01*
X77000425Y-86298334D01*
X77026782Y-86295500D01*
X79133218Y-86295500D01*
X79200257Y-86315185D01*
G37*
%TD.AperFunction*%
%TA.AperFunction,NonConductor*%
G36*
X148014425Y-87566855D02*
G01*
X148029303Y-87576416D01*
X148132669Y-87653796D01*
X148132670Y-87653796D01*
X148132673Y-87653798D01*
X148243832Y-87695257D01*
X148299766Y-87737127D01*
X148324184Y-87802592D01*
X148324500Y-87811439D01*
X148324500Y-87840638D01*
X148304815Y-87907677D01*
X148288181Y-87928319D01*
X147720473Y-88496026D01*
X147659150Y-88529511D01*
X147589458Y-88524527D01*
X147533525Y-88482655D01*
X147509108Y-88417191D01*
X147514862Y-88370024D01*
X147516514Y-88364939D01*
X147523960Y-88346969D01*
X147530319Y-88334489D01*
X147530320Y-88334488D01*
X147548296Y-88267397D01*
X147549214Y-88264301D01*
X147554204Y-88248943D01*
X147570674Y-88198256D01*
X147572138Y-88184317D01*
X147575687Y-88165175D01*
X147579313Y-88151645D01*
X147582947Y-88082281D01*
X147583201Y-88079064D01*
X147585499Y-88057199D01*
X147585500Y-88057191D01*
X147585500Y-88035201D01*
X147585585Y-88031956D01*
X147586369Y-88017000D01*
X147589219Y-87962612D01*
X147587027Y-87948772D01*
X147585500Y-87929373D01*
X147585500Y-87811439D01*
X147605185Y-87744400D01*
X147657989Y-87698645D01*
X147666168Y-87695257D01*
X147777326Y-87653798D01*
X147777326Y-87653797D01*
X147777331Y-87653796D01*
X147880690Y-87576421D01*
X147946152Y-87552004D01*
X148014425Y-87566855D01*
G37*
%TD.AperFunction*%
%TA.AperFunction,NonConductor*%
G36*
X74898834Y-87747178D02*
G01*
X74954767Y-87789050D01*
X74979184Y-87854514D01*
X74979500Y-87863360D01*
X74979500Y-89487870D01*
X74979501Y-89487876D01*
X74985908Y-89547483D01*
X75036202Y-89682328D01*
X75036206Y-89682335D01*
X75122452Y-89797544D01*
X75122455Y-89797547D01*
X75237664Y-89883793D01*
X75237671Y-89883797D01*
X75372517Y-89934091D01*
X75372516Y-89934091D01*
X75379444Y-89934835D01*
X75432127Y-89940500D01*
X76727872Y-89940499D01*
X76787483Y-89934091D01*
X76922331Y-89883796D01*
X77037546Y-89797546D01*
X77123796Y-89682331D01*
X77158414Y-89589514D01*
X77200284Y-89533581D01*
X77265748Y-89509163D01*
X77334022Y-89524014D01*
X77362277Y-89545166D01*
X78091957Y-90274846D01*
X78125442Y-90336169D01*
X78120458Y-90405861D01*
X78078586Y-90461794D01*
X78062730Y-90471885D01*
X77988604Y-90511507D01*
X77893550Y-90562315D01*
X77893548Y-90562316D01*
X77893547Y-90562317D01*
X77733589Y-90693589D01*
X77602317Y-90853547D01*
X77504769Y-91036043D01*
X77444699Y-91234067D01*
X77425650Y-91427484D01*
X77424417Y-91440000D01*
X77425653Y-91452546D01*
X77444699Y-91645932D01*
X77469099Y-91726367D01*
X77504768Y-91843954D01*
X77602315Y-92026450D01*
X77615220Y-92042175D01*
X77733589Y-92186410D01*
X77822633Y-92259485D01*
X77893550Y-92317685D01*
X78076046Y-92415232D01*
X78274066Y-92475300D01*
X78274065Y-92475300D01*
X78312647Y-92479100D01*
X78428392Y-92490500D01*
X78428395Y-92490500D01*
X78531605Y-92490500D01*
X78531608Y-92490500D01*
X78685934Y-92475300D01*
X78883954Y-92415232D01*
X79066450Y-92317685D01*
X79226410Y-92186410D01*
X79357685Y-92026450D01*
X79448114Y-91857269D01*
X79497076Y-91807425D01*
X79565214Y-91791965D01*
X79630894Y-91815797D01*
X79645153Y-91828042D01*
X80551553Y-92734442D01*
X80585038Y-92795765D01*
X80580054Y-92865457D01*
X80538182Y-92921390D01*
X80477131Y-92945412D01*
X80472519Y-92945907D01*
X80337671Y-92996202D01*
X80337664Y-92996206D01*
X80222455Y-93082452D01*
X80222452Y-93082455D01*
X80136206Y-93197664D01*
X80136202Y-93197671D01*
X80085908Y-93332517D01*
X80079501Y-93392116D01*
X80079500Y-93392135D01*
X80079500Y-93665500D01*
X80059815Y-93732539D01*
X80007011Y-93778294D01*
X79955500Y-93789500D01*
X77334361Y-93789500D01*
X77267322Y-93769815D01*
X77246680Y-93753181D01*
X73645568Y-90152069D01*
X73612083Y-90090746D01*
X73617067Y-90021054D01*
X73658939Y-89965121D01*
X73724403Y-89940704D01*
X73726645Y-89940564D01*
X73727845Y-89940499D01*
X73727872Y-89940499D01*
X73787483Y-89934091D01*
X73922331Y-89883796D01*
X74037546Y-89797546D01*
X74123796Y-89682331D01*
X74174091Y-89547483D01*
X74180500Y-89487873D01*
X74180499Y-88414359D01*
X74200183Y-88347321D01*
X74216813Y-88326684D01*
X74767820Y-87775678D01*
X74829142Y-87742194D01*
X74898834Y-87747178D01*
G37*
%TD.AperFunction*%
%TA.AperFunction,NonConductor*%
G36*
X94982539Y-86315185D02*
G01*
X95028294Y-86367989D01*
X95039500Y-86419500D01*
X95039500Y-88042870D01*
X95039501Y-88042876D01*
X95045908Y-88102483D01*
X95096202Y-88237328D01*
X95096206Y-88237335D01*
X95182452Y-88352544D01*
X95182455Y-88352547D01*
X95297664Y-88438793D01*
X95297671Y-88438797D01*
X95432517Y-88489091D01*
X95432516Y-88489091D01*
X95439444Y-88489835D01*
X95492127Y-88495500D01*
X98787872Y-88495499D01*
X98847483Y-88489091D01*
X98982331Y-88438796D01*
X99097546Y-88352546D01*
X99183796Y-88237331D01*
X99234091Y-88102483D01*
X99240500Y-88042873D01*
X99240499Y-86419499D01*
X99260184Y-86352461D01*
X99312987Y-86306706D01*
X99364499Y-86295500D01*
X124340639Y-86295500D01*
X124407678Y-86315185D01*
X124428319Y-86331818D01*
X125459320Y-87362820D01*
X126486236Y-88389736D01*
X126498871Y-88404529D01*
X126507110Y-88415869D01*
X126507112Y-88415871D01*
X126558730Y-88462348D01*
X126561068Y-88464568D01*
X126576620Y-88480120D01*
X126593716Y-88493964D01*
X126596168Y-88496058D01*
X126604044Y-88503149D01*
X126647784Y-88542533D01*
X126655633Y-88547065D01*
X126659920Y-88549540D01*
X126675952Y-88560557D01*
X126686851Y-88569383D01*
X126748714Y-88600903D01*
X126751569Y-88602453D01*
X126811707Y-88637174D01*
X126811712Y-88637177D01*
X126811713Y-88637177D01*
X126811716Y-88637179D01*
X126825050Y-88641511D01*
X126843022Y-88648956D01*
X126855512Y-88655320D01*
X126855514Y-88655320D01*
X126855515Y-88655321D01*
X126873928Y-88660254D01*
X126922601Y-88673296D01*
X126925682Y-88674209D01*
X126991744Y-88695674D01*
X127005688Y-88697139D01*
X127024814Y-88700685D01*
X127034441Y-88703264D01*
X127038355Y-88704313D01*
X127107720Y-88707947D01*
X127110935Y-88708200D01*
X127132808Y-88710500D01*
X127154798Y-88710500D01*
X127158041Y-88710584D01*
X127227388Y-88714219D01*
X127241227Y-88712027D01*
X127260627Y-88710500D01*
X143816454Y-88710500D01*
X143835853Y-88712027D01*
X143849693Y-88714219D01*
X143919040Y-88710584D01*
X143922284Y-88710500D01*
X143944272Y-88710500D01*
X143944273Y-88710500D01*
X143961069Y-88708734D01*
X143966145Y-88708201D01*
X143969365Y-88707947D01*
X144038727Y-88704313D01*
X144052268Y-88700683D01*
X144071394Y-88697138D01*
X144085337Y-88695674D01*
X144151387Y-88674212D01*
X144154449Y-88673304D01*
X144221569Y-88655320D01*
X144234057Y-88648956D01*
X144252031Y-88641510D01*
X144265365Y-88637179D01*
X144325557Y-88602425D01*
X144328303Y-88600934D01*
X144390230Y-88569383D01*
X144401112Y-88560569D01*
X144417164Y-88549537D01*
X144429297Y-88542533D01*
X144480928Y-88496043D01*
X144483341Y-88493982D01*
X144500461Y-88480119D01*
X144516010Y-88464568D01*
X144518351Y-88462347D01*
X144569969Y-88415871D01*
X144578211Y-88404525D01*
X144590843Y-88389736D01*
X144724737Y-88255841D01*
X144739525Y-88243211D01*
X144750871Y-88234969D01*
X144797347Y-88183351D01*
X144799570Y-88181009D01*
X144805968Y-88174611D01*
X144815119Y-88165461D01*
X144828982Y-88148341D01*
X144831049Y-88145922D01*
X144832994Y-88143762D01*
X144877533Y-88094297D01*
X144884538Y-88082161D01*
X144895570Y-88066112D01*
X144904381Y-88055232D01*
X144904383Y-88055230D01*
X144910679Y-88042872D01*
X144935934Y-87993303D01*
X144937425Y-87990557D01*
X144972179Y-87930365D01*
X144976509Y-87917037D01*
X144983960Y-87899050D01*
X144990319Y-87886571D01*
X144990320Y-87886569D01*
X144996538Y-87863360D01*
X145008297Y-87819471D01*
X145009201Y-87816418D01*
X145019429Y-87784941D01*
X145058867Y-87727269D01*
X145096008Y-87708929D01*
X145095215Y-87706802D01*
X145190081Y-87671419D01*
X145237331Y-87653796D01*
X145340690Y-87576421D01*
X145406152Y-87552004D01*
X145474425Y-87566855D01*
X145489303Y-87576416D01*
X145576873Y-87641971D01*
X145578210Y-87642972D01*
X145620080Y-87698906D01*
X145625064Y-87768598D01*
X145591579Y-87829919D01*
X133758320Y-99663181D01*
X133696997Y-99696666D01*
X133670639Y-99699500D01*
X99235258Y-99699500D01*
X99168219Y-99679815D01*
X99122464Y-99627011D01*
X99112520Y-99557853D01*
X99135991Y-99501189D01*
X99183796Y-99437331D01*
X99234091Y-99302483D01*
X99240500Y-99242873D01*
X99240500Y-98687870D01*
X125984500Y-98687870D01*
X125984501Y-98687876D01*
X125990908Y-98747483D01*
X126041202Y-98882328D01*
X126041206Y-98882335D01*
X126127452Y-98997544D01*
X126127455Y-98997547D01*
X126242664Y-99083793D01*
X126242671Y-99083797D01*
X126377517Y-99134091D01*
X126377516Y-99134091D01*
X126384444Y-99134835D01*
X126437127Y-99140500D01*
X129073317Y-99140499D01*
X129078721Y-99140734D01*
X129082483Y-99141064D01*
X129134999Y-99145659D01*
X129134999Y-99145658D01*
X129135000Y-99145659D01*
X129191280Y-99140734D01*
X129196682Y-99140499D01*
X130032871Y-99140499D01*
X130032872Y-99140499D01*
X130092483Y-99134091D01*
X130227331Y-99083796D01*
X130342546Y-98997546D01*
X130428796Y-98882331D01*
X130479091Y-98747483D01*
X130485500Y-98687873D01*
X130485499Y-97851678D01*
X130485735Y-97846272D01*
X130485975Y-97843536D01*
X130490659Y-97790000D01*
X130485734Y-97733722D01*
X130485499Y-97728319D01*
X130485499Y-96892129D01*
X130485498Y-96892123D01*
X130485497Y-96892116D01*
X130479622Y-96837454D01*
X130479091Y-96832516D01*
X130428797Y-96697671D01*
X130428795Y-96697668D01*
X130426424Y-96694501D01*
X130351421Y-96594309D01*
X130327004Y-96528848D01*
X130341855Y-96460575D01*
X130351416Y-96445696D01*
X130428796Y-96342331D01*
X130479091Y-96207483D01*
X130485500Y-96147873D01*
X130485499Y-94352128D01*
X130479091Y-94292517D01*
X130451912Y-94219647D01*
X130428797Y-94157671D01*
X130428795Y-94157668D01*
X130370860Y-94080277D01*
X130351421Y-94054309D01*
X130327004Y-93988848D01*
X130341855Y-93920575D01*
X130351416Y-93905696D01*
X130428796Y-93802331D01*
X130479091Y-93667483D01*
X130485500Y-93607873D01*
X130485499Y-92771678D01*
X130485735Y-92766272D01*
X130486608Y-92756302D01*
X130490659Y-92710000D01*
X130485734Y-92653722D01*
X130485499Y-92648319D01*
X130485499Y-91812129D01*
X130485498Y-91812123D01*
X130485497Y-91812116D01*
X130479091Y-91752517D01*
X130476945Y-91746764D01*
X130428797Y-91617671D01*
X130428793Y-91617664D01*
X130342547Y-91502455D01*
X130342544Y-91502452D01*
X130227335Y-91416206D01*
X130227328Y-91416202D01*
X130092482Y-91365908D01*
X130092483Y-91365908D01*
X130032883Y-91359501D01*
X130032881Y-91359500D01*
X130032873Y-91359500D01*
X130032865Y-91359500D01*
X129196674Y-91359500D01*
X129191272Y-91359264D01*
X129147962Y-91355475D01*
X129135001Y-91354341D01*
X129134998Y-91354341D01*
X129101895Y-91357237D01*
X129078726Y-91359264D01*
X129073323Y-91359500D01*
X126437129Y-91359500D01*
X126437123Y-91359501D01*
X126377516Y-91365908D01*
X126242671Y-91416202D01*
X126242664Y-91416206D01*
X126127455Y-91502452D01*
X126127452Y-91502455D01*
X126041206Y-91617664D01*
X126041202Y-91617671D01*
X125990908Y-91752517D01*
X125984811Y-91809232D01*
X125984501Y-91812123D01*
X125984500Y-91812135D01*
X125984500Y-93607870D01*
X125984501Y-93607876D01*
X125990908Y-93667483D01*
X126041202Y-93802328D01*
X126041203Y-93802330D01*
X126118578Y-93905689D01*
X126142995Y-93971153D01*
X126128144Y-94039426D01*
X126118578Y-94054309D01*
X126113415Y-94061208D01*
X126041203Y-94157669D01*
X126041202Y-94157671D01*
X125990908Y-94292517D01*
X125984501Y-94352116D01*
X125984501Y-94352123D01*
X125984500Y-94352135D01*
X125984500Y-96147870D01*
X125984501Y-96147876D01*
X125990908Y-96207483D01*
X126041202Y-96342328D01*
X126041203Y-96342330D01*
X126072242Y-96383793D01*
X126114005Y-96439581D01*
X126118578Y-96445689D01*
X126142995Y-96511153D01*
X126128144Y-96579426D01*
X126118578Y-96594311D01*
X126041203Y-96697669D01*
X126041202Y-96697671D01*
X125990908Y-96832517D01*
X125984501Y-96892116D01*
X125984501Y-96892123D01*
X125984500Y-96892135D01*
X125984500Y-98687870D01*
X99240500Y-98687870D01*
X99240499Y-97147128D01*
X99234091Y-97087517D01*
X99232862Y-97084223D01*
X99183797Y-96952671D01*
X99183793Y-96952664D01*
X99097547Y-96837455D01*
X99097544Y-96837452D01*
X98982335Y-96751206D01*
X98982328Y-96751202D01*
X98847482Y-96700908D01*
X98847483Y-96700908D01*
X98787883Y-96694501D01*
X98787881Y-96694500D01*
X98787873Y-96694500D01*
X98787864Y-96694500D01*
X95492129Y-96694500D01*
X95492123Y-96694501D01*
X95432516Y-96700908D01*
X95297671Y-96751202D01*
X95297664Y-96751206D01*
X95182455Y-96837452D01*
X95182452Y-96837455D01*
X95096206Y-96952664D01*
X95096202Y-96952671D01*
X95045908Y-97087517D01*
X95040351Y-97139208D01*
X95039501Y-97147123D01*
X95039500Y-97147135D01*
X95039500Y-99242870D01*
X95039501Y-99242876D01*
X95045908Y-99302483D01*
X95096202Y-99437328D01*
X95096204Y-99437331D01*
X95144008Y-99501189D01*
X95168426Y-99566652D01*
X95153575Y-99634925D01*
X95104170Y-99684331D01*
X95044742Y-99699500D01*
X90229361Y-99699500D01*
X90162322Y-99679815D01*
X90141680Y-99663181D01*
X88563360Y-98084861D01*
X88529875Y-98023538D01*
X88527211Y-98003669D01*
X88524312Y-97948354D01*
X88524311Y-97948348D01*
X88520687Y-97934825D01*
X88517139Y-97915684D01*
X88515674Y-97901748D01*
X88515674Y-97901747D01*
X88515674Y-97901744D01*
X88494214Y-97835699D01*
X88493291Y-97832585D01*
X88481881Y-97790000D01*
X88475320Y-97765512D01*
X88468954Y-97753019D01*
X88461508Y-97735042D01*
X88461080Y-97733726D01*
X88457179Y-97721716D01*
X88457178Y-97721714D01*
X88457175Y-97721707D01*
X88432447Y-97678879D01*
X88422443Y-97661552D01*
X88420920Y-97658747D01*
X88389383Y-97596851D01*
X88389382Y-97596849D01*
X88380560Y-97585955D01*
X88369538Y-97569918D01*
X88362532Y-97557783D01*
X88362531Y-97557781D01*
X88316060Y-97506170D01*
X88313952Y-97503702D01*
X88300118Y-97486619D01*
X88284577Y-97471078D01*
X88282341Y-97468722D01*
X88235872Y-97417113D01*
X88235871Y-97417112D01*
X88224525Y-97408869D01*
X88209734Y-97396235D01*
X84520680Y-93707181D01*
X84487195Y-93645858D01*
X84492179Y-93576166D01*
X84534051Y-93520233D01*
X84599515Y-93495816D01*
X84608361Y-93495500D01*
X88375089Y-93495500D01*
X88442128Y-93515185D01*
X88466315Y-93535514D01*
X88620256Y-93702738D01*
X88677312Y-93747147D01*
X88718125Y-93803857D01*
X88721800Y-93873630D01*
X88687169Y-93934313D01*
X88677317Y-93942848D01*
X88640953Y-93971153D01*
X88620257Y-93987261D01*
X88451833Y-94170217D01*
X88315826Y-94378393D01*
X88215936Y-94606118D01*
X88154892Y-94847175D01*
X88154890Y-94847187D01*
X88134357Y-95094994D01*
X88134357Y-95095005D01*
X88154890Y-95342812D01*
X88154892Y-95342824D01*
X88215936Y-95583881D01*
X88315826Y-95811606D01*
X88451833Y-96019782D01*
X88451836Y-96019785D01*
X88620256Y-96202738D01*
X88816491Y-96355474D01*
X88868827Y-96383797D01*
X89010700Y-96460575D01*
X89035190Y-96473828D01*
X89270386Y-96554571D01*
X89515665Y-96595500D01*
X89764335Y-96595500D01*
X90009614Y-96554571D01*
X90244810Y-96473828D01*
X90463509Y-96355474D01*
X90659744Y-96202738D01*
X90828164Y-96019785D01*
X90964173Y-95811607D01*
X91064063Y-95583881D01*
X91125108Y-95342821D01*
X91125148Y-95342341D01*
X91145643Y-95095005D01*
X102634357Y-95095005D01*
X102654890Y-95342812D01*
X102654892Y-95342824D01*
X102715936Y-95583881D01*
X102815826Y-95811606D01*
X102951833Y-96019782D01*
X102951836Y-96019785D01*
X103120256Y-96202738D01*
X103316491Y-96355474D01*
X103368827Y-96383797D01*
X103510700Y-96460575D01*
X103535190Y-96473828D01*
X103770386Y-96554571D01*
X104015665Y-96595500D01*
X104264335Y-96595500D01*
X104509614Y-96554571D01*
X104744810Y-96473828D01*
X104963509Y-96355474D01*
X105159744Y-96202738D01*
X105328164Y-96019785D01*
X105464173Y-95811607D01*
X105564063Y-95583881D01*
X105625108Y-95342821D01*
X105625148Y-95342341D01*
X105645643Y-95095005D01*
X105645643Y-95094994D01*
X105625109Y-94847187D01*
X105625107Y-94847175D01*
X105564063Y-94606118D01*
X105464173Y-94378393D01*
X105328166Y-94170217D01*
X105241103Y-94075642D01*
X105159744Y-93987262D01*
X104963509Y-93834526D01*
X104963507Y-93834525D01*
X104963506Y-93834524D01*
X104744811Y-93716172D01*
X104744802Y-93716169D01*
X104509616Y-93635429D01*
X104264335Y-93594500D01*
X104015665Y-93594500D01*
X103770383Y-93635429D01*
X103535197Y-93716169D01*
X103535188Y-93716172D01*
X103316493Y-93834524D01*
X103120257Y-93987261D01*
X102951833Y-94170217D01*
X102815826Y-94378393D01*
X102715936Y-94606118D01*
X102654892Y-94847175D01*
X102654890Y-94847187D01*
X102634357Y-95094994D01*
X102634357Y-95095005D01*
X91145643Y-95095005D01*
X91145643Y-95094994D01*
X91125109Y-94847187D01*
X91125107Y-94847175D01*
X91064063Y-94606118D01*
X90964173Y-94378393D01*
X90828166Y-94170217D01*
X90741103Y-94075642D01*
X90659744Y-93987262D01*
X90602685Y-93942851D01*
X90561874Y-93886143D01*
X90558199Y-93816370D01*
X90592830Y-93755687D01*
X90602675Y-93747156D01*
X90659744Y-93702738D01*
X90828164Y-93519785D01*
X90964173Y-93311607D01*
X91064063Y-93083881D01*
X91125108Y-92842821D01*
X91125109Y-92842812D01*
X91145643Y-92595005D01*
X91145643Y-92594994D01*
X91125109Y-92347187D01*
X91125107Y-92347175D01*
X91064063Y-92106118D01*
X90964173Y-91878393D01*
X90851916Y-91706570D01*
X90831729Y-91639681D01*
X90850909Y-91572495D01*
X90881414Y-91539482D01*
X90882329Y-91538796D01*
X90882331Y-91538796D01*
X90997546Y-91452546D01*
X91083796Y-91337331D01*
X91134091Y-91202483D01*
X91140500Y-91142873D01*
X91140500Y-90095005D01*
X102634357Y-90095005D01*
X102654890Y-90342812D01*
X102654892Y-90342824D01*
X102715936Y-90583881D01*
X102815826Y-90811606D01*
X102951833Y-91019782D01*
X102966805Y-91036046D01*
X103120256Y-91202738D01*
X103316491Y-91355474D01*
X103535190Y-91473828D01*
X103770386Y-91554571D01*
X104015665Y-91595500D01*
X104264335Y-91595500D01*
X104509614Y-91554571D01*
X104744810Y-91473828D01*
X104963509Y-91355474D01*
X105159744Y-91202738D01*
X105328164Y-91019785D01*
X105464173Y-90811607D01*
X105564063Y-90583881D01*
X105625108Y-90342821D01*
X105625659Y-90336169D01*
X105645643Y-90095005D01*
X105645643Y-90094994D01*
X105625109Y-89847187D01*
X105625107Y-89847175D01*
X105564063Y-89606118D01*
X105464173Y-89378393D01*
X105328166Y-89170217D01*
X105306557Y-89146744D01*
X105159744Y-88987262D01*
X104963509Y-88834526D01*
X104963507Y-88834525D01*
X104963506Y-88834524D01*
X104744811Y-88716172D01*
X104744802Y-88716169D01*
X104509616Y-88635429D01*
X104264335Y-88594500D01*
X104015665Y-88594500D01*
X103770383Y-88635429D01*
X103535197Y-88716169D01*
X103535188Y-88716172D01*
X103316493Y-88834524D01*
X103120257Y-88987261D01*
X102951833Y-89170217D01*
X102815826Y-89378393D01*
X102715936Y-89606118D01*
X102654892Y-89847175D01*
X102654890Y-89847187D01*
X102634357Y-90094994D01*
X102634357Y-90095005D01*
X91140500Y-90095005D01*
X91140499Y-89047128D01*
X91134091Y-88987517D01*
X91083796Y-88852669D01*
X91083795Y-88852668D01*
X91083793Y-88852664D01*
X90997547Y-88737455D01*
X90997544Y-88737452D01*
X90882335Y-88651206D01*
X90882328Y-88651202D01*
X90747482Y-88600908D01*
X90747483Y-88600908D01*
X90687883Y-88594501D01*
X90687881Y-88594500D01*
X90687873Y-88594500D01*
X90687864Y-88594500D01*
X88592129Y-88594500D01*
X88592123Y-88594501D01*
X88532516Y-88600908D01*
X88397671Y-88651202D01*
X88397664Y-88651206D01*
X88282455Y-88737452D01*
X88282452Y-88737455D01*
X88196206Y-88852664D01*
X88196202Y-88852671D01*
X88145908Y-88987517D01*
X88139501Y-89047116D01*
X88139501Y-89047123D01*
X88139500Y-89047135D01*
X88139500Y-91142870D01*
X88139501Y-91142876D01*
X88145908Y-91202483D01*
X88196202Y-91337328D01*
X88196206Y-91337335D01*
X88282452Y-91452544D01*
X88282453Y-91452544D01*
X88282454Y-91452546D01*
X88300441Y-91466011D01*
X88307418Y-91471234D01*
X88349288Y-91527168D01*
X88354272Y-91596860D01*
X88320786Y-91658182D01*
X88259462Y-91691667D01*
X88233106Y-91694500D01*
X84909362Y-91694500D01*
X84842323Y-91674815D01*
X84821681Y-91658181D01*
X81216818Y-88053318D01*
X81183333Y-87991995D01*
X81180499Y-87965637D01*
X81180499Y-86892129D01*
X81180498Y-86892123D01*
X81180497Y-86892116D01*
X81174091Y-86832517D01*
X81124411Y-86699319D01*
X81123797Y-86697671D01*
X81123793Y-86697664D01*
X81037547Y-86582455D01*
X81037544Y-86582452D01*
X80952471Y-86518766D01*
X80910600Y-86462832D01*
X80905616Y-86393141D01*
X80939102Y-86331818D01*
X81000425Y-86298334D01*
X81026782Y-86295500D01*
X94915500Y-86295500D01*
X94982539Y-86315185D01*
G37*
%TD.AperFunction*%
%TA.AperFunction,NonConductor*%
G36*
X172582678Y-74800185D02*
G01*
X172603320Y-74816819D01*
X172703181Y-74916680D01*
X172736666Y-74978003D01*
X172739500Y-75004361D01*
X172739500Y-75427870D01*
X172739501Y-75427876D01*
X172745908Y-75487483D01*
X172796202Y-75622328D01*
X172796206Y-75622335D01*
X172882452Y-75737544D01*
X172882455Y-75737547D01*
X172997664Y-75823793D01*
X172997671Y-75823797D01*
X173132517Y-75874091D01*
X173132516Y-75874091D01*
X173139444Y-75874835D01*
X173192127Y-75880500D01*
X174787872Y-75880499D01*
X174847483Y-75874091D01*
X174982331Y-75823796D01*
X175097546Y-75737546D01*
X175183796Y-75622331D01*
X175234091Y-75487483D01*
X175240500Y-75427873D01*
X175240499Y-74904499D01*
X175260183Y-74837461D01*
X175312987Y-74791706D01*
X175364499Y-74780500D01*
X177515500Y-74780500D01*
X177582539Y-74800185D01*
X177628294Y-74852989D01*
X177639500Y-74904500D01*
X177639500Y-75427870D01*
X177639501Y-75427876D01*
X177645908Y-75487483D01*
X177696202Y-75622328D01*
X177696206Y-75622335D01*
X177782452Y-75737544D01*
X177782455Y-75737547D01*
X177897664Y-75823793D01*
X177897671Y-75823797D01*
X178032517Y-75874091D01*
X178032516Y-75874091D01*
X178039444Y-75874835D01*
X178092127Y-75880500D01*
X179687872Y-75880499D01*
X179747483Y-75874091D01*
X179882331Y-75823796D01*
X179997546Y-75737546D01*
X180083796Y-75622331D01*
X180134091Y-75487483D01*
X180140500Y-75427873D01*
X180140499Y-74904499D01*
X180160183Y-74837461D01*
X180212987Y-74791706D01*
X180264499Y-74780500D01*
X180585500Y-74780500D01*
X180652539Y-74800185D01*
X180698294Y-74852989D01*
X180709500Y-74904500D01*
X180709500Y-95167669D01*
X180689815Y-95234708D01*
X180673181Y-95255350D01*
X178507729Y-97420801D01*
X178446406Y-97454286D01*
X178376714Y-97449302D01*
X178320781Y-97407430D01*
X178304990Y-97379354D01*
X178290064Y-97342210D01*
X178280768Y-97327112D01*
X178276779Y-97319500D01*
X178270924Y-97306151D01*
X178217724Y-97224721D01*
X178165071Y-97139208D01*
X178165070Y-97139207D01*
X178165069Y-97139205D01*
X178158451Y-97131686D01*
X178147727Y-97117584D01*
X178143978Y-97111845D01*
X178075972Y-97037971D01*
X178007565Y-96960246D01*
X178002439Y-96956107D01*
X177989117Y-96943621D01*
X177986785Y-96941088D01*
X177986783Y-96941086D01*
X177905066Y-96877484D01*
X177822080Y-96810477D01*
X177822073Y-96810472D01*
X177819311Y-96808929D01*
X177803643Y-96798542D01*
X177803634Y-96798535D01*
X177803628Y-96798532D01*
X177803626Y-96798530D01*
X177709837Y-96747774D01*
X177613954Y-96694210D01*
X177613953Y-96694209D01*
X177613952Y-96694209D01*
X177611381Y-96693047D01*
X177604284Y-96689898D01*
X177604188Y-96690119D01*
X177599506Y-96688065D01*
X177495723Y-96652436D01*
X177389168Y-96614788D01*
X177389160Y-96614786D01*
X177388612Y-96614692D01*
X177383889Y-96613691D01*
X177379989Y-96612703D01*
X177268675Y-96594128D01*
X177154209Y-96574500D01*
X177154200Y-96574500D01*
X177151049Y-96574500D01*
X176918951Y-96574500D01*
X176918950Y-96574500D01*
X176862533Y-96583913D01*
X176857587Y-96584535D01*
X176855099Y-96584747D01*
X176797469Y-96589652D01*
X176797461Y-96589653D01*
X176745397Y-96603208D01*
X176739981Y-96604363D01*
X176690013Y-96612703D01*
X176632840Y-96632331D01*
X176628330Y-96633690D01*
X176566749Y-96649725D01*
X176566744Y-96649727D01*
X176520711Y-96670535D01*
X176515304Y-96672680D01*
X176470503Y-96688060D01*
X176470498Y-96688063D01*
X176414448Y-96718395D01*
X176410478Y-96720363D01*
X176349514Y-96747922D01*
X176310359Y-96774385D01*
X176305149Y-96777544D01*
X176266379Y-96798526D01*
X176266367Y-96798533D01*
X176213487Y-96839692D01*
X176210124Y-96842133D01*
X176152001Y-96881417D01*
X176151994Y-96881422D01*
X176120248Y-96911847D01*
X176115430Y-96916011D01*
X176083218Y-96941085D01*
X176083209Y-96941093D01*
X176035613Y-96992795D01*
X176032900Y-96995564D01*
X175979882Y-97046378D01*
X175979880Y-97046380D01*
X175955681Y-97079098D01*
X175951448Y-97084223D01*
X175926022Y-97111845D01*
X175885797Y-97173412D01*
X175883741Y-97176367D01*
X175838124Y-97238047D01*
X175838120Y-97238054D01*
X175821268Y-97271475D01*
X175817811Y-97277472D01*
X175799076Y-97306149D01*
X175768219Y-97376496D01*
X175766803Y-97379503D01*
X175730790Y-97450931D01*
X175720792Y-97483573D01*
X175718288Y-97490323D01*
X175705845Y-97518691D01*
X175705845Y-97518692D01*
X175686178Y-97596347D01*
X175685358Y-97599279D01*
X175660984Y-97678876D01*
X175660983Y-97678879D01*
X175657063Y-97709485D01*
X175655668Y-97716830D01*
X175648867Y-97743688D01*
X175648864Y-97743705D01*
X175641867Y-97828154D01*
X175630702Y-97915344D01*
X175630701Y-97915344D01*
X175631872Y-97942900D01*
X175631716Y-97950655D01*
X175629700Y-97974996D01*
X175629700Y-97975000D01*
X175634150Y-98028713D01*
X175636955Y-98062567D01*
X175640819Y-98153523D01*
X175640820Y-98153534D01*
X175645939Y-98177284D01*
X175647120Y-98185233D01*
X175648865Y-98206301D01*
X175648865Y-98206304D01*
X175648866Y-98206305D01*
X175671205Y-98294520D01*
X175678677Y-98329191D01*
X175691046Y-98386582D01*
X175698883Y-98406084D01*
X175701458Y-98413987D01*
X175704585Y-98426333D01*
X175705548Y-98430137D01*
X175705844Y-98431303D01*
X175743655Y-98517504D01*
X175779934Y-98607787D01*
X175779935Y-98607788D01*
X175789232Y-98622888D01*
X175793218Y-98630495D01*
X175799076Y-98643850D01*
X175852275Y-98725277D01*
X175904930Y-98810794D01*
X175911543Y-98818308D01*
X175922263Y-98832402D01*
X175924738Y-98836189D01*
X175926021Y-98838153D01*
X175994027Y-98912028D01*
X176062436Y-98989755D01*
X176067564Y-98993895D01*
X176080882Y-99006377D01*
X176083216Y-99008913D01*
X176164933Y-99072515D01*
X176247920Y-99139523D01*
X176247922Y-99139524D01*
X176250678Y-99141064D01*
X176266360Y-99151460D01*
X176266367Y-99151465D01*
X176266371Y-99151467D01*
X176266374Y-99151470D01*
X176360162Y-99202225D01*
X176451910Y-99253480D01*
X176500836Y-99303360D01*
X176515028Y-99371773D01*
X176489980Y-99436999D01*
X176479116Y-99449414D01*
X174175351Y-101753181D01*
X174114028Y-101786666D01*
X174087670Y-101789500D01*
X173255627Y-101789500D01*
X173236228Y-101787973D01*
X173222388Y-101785781D01*
X173153041Y-101789415D01*
X173149798Y-101789500D01*
X173127808Y-101789500D01*
X173121559Y-101790156D01*
X173105941Y-101791797D01*
X173102710Y-101792051D01*
X173033358Y-101795686D01*
X173033353Y-101795687D01*
X173019803Y-101799317D01*
X173000691Y-101802859D01*
X172986749Y-101804325D01*
X172986737Y-101804327D01*
X172934469Y-101821310D01*
X172920687Y-101825788D01*
X172917607Y-101826701D01*
X172880695Y-101836591D01*
X172850514Y-101844679D01*
X172838020Y-101851045D01*
X172820053Y-101858487D01*
X172806714Y-101862821D01*
X172746591Y-101897533D01*
X172743740Y-101899081D01*
X172681850Y-101930617D01*
X172670951Y-101939442D01*
X172654931Y-101950452D01*
X172642787Y-101957464D01*
X172642783Y-101957467D01*
X172591190Y-102003921D01*
X172588726Y-102006026D01*
X172571620Y-102019879D01*
X172556056Y-102035443D01*
X172553719Y-102037660D01*
X172532206Y-102057030D01*
X172502113Y-102084127D01*
X172502105Y-102084136D01*
X172493872Y-102095468D01*
X172481238Y-102110260D01*
X171838318Y-102753181D01*
X171776995Y-102786666D01*
X171750637Y-102789500D01*
X171187129Y-102789500D01*
X171187123Y-102789501D01*
X171127516Y-102795908D01*
X170992671Y-102846202D01*
X170992669Y-102846203D01*
X170889311Y-102923578D01*
X170823847Y-102947995D01*
X170755574Y-102933144D01*
X170740689Y-102923578D01*
X170717090Y-102905912D01*
X170637331Y-102846204D01*
X170637330Y-102846203D01*
X170637328Y-102846202D01*
X170502482Y-102795908D01*
X170502483Y-102795908D01*
X170442883Y-102789501D01*
X170442881Y-102789500D01*
X170442873Y-102789500D01*
X170442865Y-102789500D01*
X169606677Y-102789500D01*
X169601275Y-102789264D01*
X169570849Y-102786602D01*
X169545002Y-102784341D01*
X169544999Y-102784341D01*
X169527750Y-102785849D01*
X169488722Y-102789264D01*
X169483322Y-102789500D01*
X168647129Y-102789500D01*
X168647123Y-102789501D01*
X168587516Y-102795908D01*
X168452671Y-102846202D01*
X168452669Y-102846203D01*
X168349311Y-102923578D01*
X168283847Y-102947995D01*
X168215574Y-102933144D01*
X168200689Y-102923578D01*
X168177090Y-102905912D01*
X168097331Y-102846204D01*
X168097330Y-102846203D01*
X168097328Y-102846202D01*
X167962482Y-102795908D01*
X167962483Y-102795908D01*
X167902883Y-102789501D01*
X167902881Y-102789500D01*
X167902873Y-102789500D01*
X167902865Y-102789500D01*
X167066677Y-102789500D01*
X167061275Y-102789264D01*
X167030849Y-102786602D01*
X167005002Y-102784341D01*
X167004999Y-102784341D01*
X166987750Y-102785849D01*
X166948722Y-102789264D01*
X166943322Y-102789500D01*
X166107129Y-102789500D01*
X166107123Y-102789501D01*
X166047516Y-102795908D01*
X165912671Y-102846202D01*
X165912669Y-102846203D01*
X165809311Y-102923578D01*
X165743847Y-102947995D01*
X165675574Y-102933144D01*
X165660689Y-102923578D01*
X165637090Y-102905912D01*
X165557331Y-102846204D01*
X165557330Y-102846203D01*
X165557328Y-102846202D01*
X165422482Y-102795908D01*
X165422483Y-102795908D01*
X165362883Y-102789501D01*
X165362881Y-102789500D01*
X165362873Y-102789500D01*
X165362865Y-102789500D01*
X164526677Y-102789500D01*
X164521275Y-102789264D01*
X164490849Y-102786602D01*
X164465002Y-102784341D01*
X164464999Y-102784341D01*
X164447750Y-102785849D01*
X164408722Y-102789264D01*
X164403322Y-102789500D01*
X163567129Y-102789500D01*
X163567123Y-102789501D01*
X163507516Y-102795908D01*
X163372671Y-102846202D01*
X163372669Y-102846203D01*
X163269311Y-102923578D01*
X163203847Y-102947995D01*
X163135574Y-102933144D01*
X163120689Y-102923578D01*
X163097090Y-102905912D01*
X163017331Y-102846204D01*
X163017330Y-102846203D01*
X163017328Y-102846202D01*
X162882482Y-102795908D01*
X162882483Y-102795908D01*
X162822883Y-102789501D01*
X162822881Y-102789500D01*
X162822873Y-102789500D01*
X162822865Y-102789500D01*
X161986677Y-102789500D01*
X161981275Y-102789264D01*
X161950849Y-102786602D01*
X161925002Y-102784341D01*
X161924999Y-102784341D01*
X161907750Y-102785849D01*
X161868722Y-102789264D01*
X161863322Y-102789500D01*
X161027129Y-102789500D01*
X161027123Y-102789501D01*
X160967516Y-102795908D01*
X160832671Y-102846202D01*
X160832669Y-102846203D01*
X160729311Y-102923578D01*
X160663847Y-102947995D01*
X160595574Y-102933144D01*
X160580689Y-102923578D01*
X160557090Y-102905912D01*
X160477331Y-102846204D01*
X160477330Y-102846203D01*
X160477328Y-102846202D01*
X160342482Y-102795908D01*
X160342483Y-102795908D01*
X160282883Y-102789501D01*
X160282881Y-102789500D01*
X160282873Y-102789500D01*
X160282864Y-102789500D01*
X158487129Y-102789500D01*
X158487123Y-102789501D01*
X158427516Y-102795908D01*
X158292671Y-102846202D01*
X158292669Y-102846203D01*
X158189311Y-102923578D01*
X158123847Y-102947995D01*
X158055574Y-102933144D01*
X158040689Y-102923578D01*
X158017090Y-102905912D01*
X157937331Y-102846204D01*
X157937330Y-102846203D01*
X157937328Y-102846202D01*
X157802482Y-102795908D01*
X157802483Y-102795908D01*
X157742883Y-102789501D01*
X157742881Y-102789500D01*
X157742873Y-102789500D01*
X157742865Y-102789500D01*
X156906677Y-102789500D01*
X156901275Y-102789264D01*
X156870849Y-102786602D01*
X156845002Y-102784341D01*
X156844999Y-102784341D01*
X156827750Y-102785849D01*
X156788722Y-102789264D01*
X156783322Y-102789500D01*
X155947129Y-102789500D01*
X155947123Y-102789501D01*
X155887516Y-102795908D01*
X155752671Y-102846202D01*
X155752669Y-102846203D01*
X155649311Y-102923578D01*
X155583847Y-102947995D01*
X155515574Y-102933144D01*
X155500689Y-102923578D01*
X155477090Y-102905912D01*
X155397331Y-102846204D01*
X155397330Y-102846203D01*
X155397328Y-102846202D01*
X155262482Y-102795908D01*
X155262483Y-102795908D01*
X155202883Y-102789501D01*
X155202881Y-102789500D01*
X155202873Y-102789500D01*
X155202865Y-102789500D01*
X154366677Y-102789500D01*
X154361275Y-102789264D01*
X154330849Y-102786602D01*
X154305002Y-102784341D01*
X154304999Y-102784341D01*
X154287750Y-102785849D01*
X154248722Y-102789264D01*
X154243322Y-102789500D01*
X153407129Y-102789500D01*
X153407123Y-102789501D01*
X153347516Y-102795908D01*
X153212671Y-102846202D01*
X153212669Y-102846203D01*
X153109311Y-102923578D01*
X153043847Y-102947995D01*
X152975574Y-102933144D01*
X152960689Y-102923578D01*
X152937090Y-102905912D01*
X152857331Y-102846204D01*
X152857330Y-102846203D01*
X152857328Y-102846202D01*
X152722482Y-102795908D01*
X152722483Y-102795908D01*
X152662883Y-102789501D01*
X152662881Y-102789500D01*
X152662873Y-102789500D01*
X152662865Y-102789500D01*
X151826677Y-102789500D01*
X151821275Y-102789264D01*
X151790849Y-102786602D01*
X151765002Y-102784341D01*
X151764999Y-102784341D01*
X151747750Y-102785849D01*
X151708722Y-102789264D01*
X151703322Y-102789500D01*
X150867129Y-102789500D01*
X150867123Y-102789501D01*
X150807516Y-102795908D01*
X150672671Y-102846202D01*
X150672669Y-102846203D01*
X150569311Y-102923578D01*
X150503847Y-102947995D01*
X150435574Y-102933144D01*
X150420689Y-102923578D01*
X150397090Y-102905912D01*
X150317331Y-102846204D01*
X150317330Y-102846203D01*
X150317328Y-102846202D01*
X150182482Y-102795908D01*
X150182483Y-102795908D01*
X150122883Y-102789501D01*
X150122881Y-102789500D01*
X150122873Y-102789500D01*
X150122865Y-102789500D01*
X149286677Y-102789500D01*
X149281275Y-102789264D01*
X149250849Y-102786602D01*
X149225002Y-102784341D01*
X149224999Y-102784341D01*
X149207750Y-102785849D01*
X149168722Y-102789264D01*
X149163322Y-102789500D01*
X148327129Y-102789500D01*
X148327123Y-102789501D01*
X148267516Y-102795908D01*
X148132671Y-102846202D01*
X148132669Y-102846203D01*
X148029311Y-102923578D01*
X147963847Y-102947995D01*
X147895574Y-102933144D01*
X147880689Y-102923578D01*
X147857090Y-102905912D01*
X147777331Y-102846204D01*
X147777330Y-102846203D01*
X147777328Y-102846202D01*
X147642482Y-102795908D01*
X147642483Y-102795908D01*
X147582883Y-102789501D01*
X147582881Y-102789500D01*
X147582873Y-102789500D01*
X147582864Y-102789500D01*
X145787129Y-102789500D01*
X145787123Y-102789501D01*
X145727516Y-102795908D01*
X145592671Y-102846202D01*
X145592669Y-102846203D01*
X145489311Y-102923578D01*
X145423847Y-102947995D01*
X145355574Y-102933144D01*
X145340689Y-102923578D01*
X145317090Y-102905912D01*
X145237331Y-102846204D01*
X145237330Y-102846203D01*
X145237328Y-102846202D01*
X145102482Y-102795908D01*
X145102483Y-102795908D01*
X145042883Y-102789501D01*
X145042881Y-102789500D01*
X145042873Y-102789500D01*
X145042865Y-102789500D01*
X144206677Y-102789500D01*
X144201275Y-102789264D01*
X144170849Y-102786602D01*
X144145002Y-102784341D01*
X144144999Y-102784341D01*
X144127750Y-102785849D01*
X144088722Y-102789264D01*
X144083322Y-102789500D01*
X143247129Y-102789500D01*
X143247123Y-102789501D01*
X143187516Y-102795908D01*
X143052671Y-102846202D01*
X143052669Y-102846203D01*
X142949311Y-102923578D01*
X142883847Y-102947995D01*
X142815574Y-102933144D01*
X142800689Y-102923578D01*
X142777090Y-102905912D01*
X142697331Y-102846204D01*
X142697330Y-102846203D01*
X142697328Y-102846202D01*
X142562482Y-102795908D01*
X142562483Y-102795908D01*
X142502883Y-102789501D01*
X142502881Y-102789500D01*
X142502873Y-102789500D01*
X142502865Y-102789500D01*
X141666677Y-102789500D01*
X141661275Y-102789264D01*
X141630849Y-102786602D01*
X141605002Y-102784341D01*
X141604999Y-102784341D01*
X141587750Y-102785849D01*
X141548722Y-102789264D01*
X141543322Y-102789500D01*
X140707129Y-102789500D01*
X140707123Y-102789501D01*
X140647516Y-102795908D01*
X140512671Y-102846202D01*
X140512669Y-102846203D01*
X140409311Y-102923578D01*
X140343847Y-102947995D01*
X140275574Y-102933144D01*
X140260689Y-102923578D01*
X140237090Y-102905912D01*
X140157331Y-102846204D01*
X140157330Y-102846203D01*
X140157328Y-102846202D01*
X140022482Y-102795908D01*
X140022483Y-102795908D01*
X139962883Y-102789501D01*
X139962881Y-102789500D01*
X139962873Y-102789500D01*
X139962865Y-102789500D01*
X139126677Y-102789500D01*
X139121275Y-102789264D01*
X139090849Y-102786602D01*
X139065002Y-102784341D01*
X139064999Y-102784341D01*
X139047750Y-102785849D01*
X139008722Y-102789264D01*
X139003322Y-102789500D01*
X138167129Y-102789500D01*
X138167123Y-102789501D01*
X138107515Y-102795909D01*
X137979848Y-102843525D01*
X137910157Y-102848509D01*
X137848834Y-102815023D01*
X137815350Y-102753700D01*
X137820335Y-102684008D01*
X137848833Y-102639664D01*
X142813495Y-97675003D01*
X172749723Y-97675003D01*
X172751688Y-97697470D01*
X172751862Y-97705660D01*
X172750709Y-97731324D01*
X172750710Y-97731328D01*
X172761641Y-97812031D01*
X172761966Y-97814949D01*
X172768792Y-97892972D01*
X172768795Y-97892987D01*
X172775482Y-97917941D01*
X172777034Y-97925670D01*
X172780924Y-97954381D01*
X172780926Y-97954392D01*
X172805075Y-98028713D01*
X172805997Y-98031825D01*
X172825423Y-98104324D01*
X172825427Y-98104336D01*
X172837736Y-98130732D01*
X172840512Y-98137779D01*
X172850483Y-98168464D01*
X172885970Y-98234411D01*
X172887558Y-98237576D01*
X172917898Y-98302639D01*
X172936490Y-98329191D01*
X172940303Y-98335378D01*
X172957146Y-98366678D01*
X172957152Y-98366687D01*
X173001792Y-98422663D01*
X173004106Y-98425758D01*
X173030183Y-98462999D01*
X173043402Y-98481877D01*
X173043405Y-98481880D01*
X173068646Y-98507121D01*
X173073283Y-98512309D01*
X173097492Y-98542666D01*
X173148959Y-98587632D01*
X173152008Y-98590483D01*
X173198116Y-98636592D01*
X173198122Y-98636597D01*
X173198123Y-98636598D01*
X173208479Y-98643849D01*
X173230055Y-98658957D01*
X173235290Y-98663057D01*
X173267004Y-98690765D01*
X173267013Y-98690771D01*
X173322849Y-98724131D01*
X173326613Y-98726568D01*
X173377359Y-98762101D01*
X173377364Y-98762104D01*
X173395739Y-98770672D01*
X173415677Y-98779969D01*
X173421271Y-98782935D01*
X173458349Y-98805088D01*
X173460236Y-98806215D01*
X173472437Y-98810794D01*
X173518083Y-98827925D01*
X173522503Y-98829782D01*
X173575670Y-98854575D01*
X173575674Y-98854577D01*
X173606069Y-98862720D01*
X173619677Y-98866366D01*
X173625413Y-98868207D01*
X173642264Y-98874531D01*
X173670976Y-98885307D01*
X173728545Y-98895754D01*
X173733511Y-98896868D01*
X173787023Y-98911207D01*
X173835689Y-98915464D01*
X173841306Y-98916218D01*
X173892453Y-98925500D01*
X173947691Y-98925500D01*
X173953092Y-98925735D01*
X173981548Y-98928225D01*
X174004998Y-98930277D01*
X174005000Y-98930277D01*
X174057992Y-98925640D01*
X174061121Y-98925500D01*
X174061155Y-98925500D01*
X174115172Y-98920638D01*
X174222977Y-98911207D01*
X174223000Y-98911200D01*
X174223475Y-98911117D01*
X174228713Y-98910419D01*
X174229188Y-98910377D01*
X174332997Y-98881726D01*
X174434330Y-98854575D01*
X174434337Y-98854571D01*
X174441254Y-98852053D01*
X174445948Y-98850554D01*
X174446170Y-98850493D01*
X174446181Y-98850487D01*
X174446183Y-98850487D01*
X174540454Y-98805088D01*
X174565772Y-98793282D01*
X174632639Y-98762102D01*
X174632644Y-98762097D01*
X174637327Y-98759395D01*
X174637400Y-98759522D01*
X174648164Y-98753218D01*
X174648973Y-98752829D01*
X174731156Y-98693118D01*
X174811877Y-98636598D01*
X174812747Y-98635727D01*
X174827550Y-98623084D01*
X174831078Y-98620522D01*
X174899131Y-98549343D01*
X174966598Y-98481877D01*
X174969285Y-98478039D01*
X174981239Y-98463465D01*
X174986629Y-98457828D01*
X174986628Y-98457828D01*
X174986632Y-98457825D01*
X175039164Y-98378241D01*
X175092102Y-98302639D01*
X175095543Y-98295259D01*
X175104432Y-98279364D01*
X175110635Y-98269968D01*
X175146889Y-98185146D01*
X175184575Y-98104330D01*
X175187570Y-98093148D01*
X175193325Y-98076505D01*
X175199103Y-98062988D01*
X175218936Y-97976092D01*
X175241207Y-97892977D01*
X175242887Y-97873766D01*
X175244206Y-97865377D01*
X175244445Y-97864325D01*
X175249191Y-97843537D01*
X175253050Y-97757602D01*
X175260277Y-97675000D01*
X175258310Y-97652528D01*
X175258137Y-97644334D01*
X175259290Y-97618670D01*
X175248353Y-97537939D01*
X175248034Y-97535067D01*
X175241207Y-97457023D01*
X175234515Y-97432053D01*
X175232963Y-97424322D01*
X175229076Y-97395618D01*
X175229075Y-97395616D01*
X175229075Y-97395613D01*
X175204921Y-97321276D01*
X175203998Y-97318161D01*
X175184576Y-97245673D01*
X175184574Y-97245669D01*
X175172266Y-97219274D01*
X175169488Y-97212222D01*
X175159519Y-97181541D01*
X175159517Y-97181537D01*
X175159517Y-97181536D01*
X175141001Y-97147127D01*
X175124027Y-97115583D01*
X175122432Y-97112405D01*
X175121315Y-97110010D01*
X175092102Y-97047362D01*
X175073512Y-97020813D01*
X175069698Y-97014625D01*
X175058718Y-96994221D01*
X175052852Y-96983319D01*
X175008192Y-96927318D01*
X175005896Y-96924247D01*
X174966598Y-96868123D01*
X174941353Y-96842878D01*
X174936715Y-96837689D01*
X174912508Y-96807334D01*
X174904866Y-96800657D01*
X174861039Y-96762366D01*
X174857990Y-96759515D01*
X174811878Y-96713402D01*
X174779940Y-96691039D01*
X174774705Y-96686939D01*
X174742996Y-96659235D01*
X174742994Y-96659233D01*
X174742992Y-96659232D01*
X174687149Y-96625868D01*
X174683386Y-96623431D01*
X174632641Y-96587899D01*
X174594333Y-96570035D01*
X174588735Y-96567067D01*
X174549769Y-96543787D01*
X174549767Y-96543786D01*
X174491928Y-96522079D01*
X174487515Y-96520226D01*
X174434330Y-96495425D01*
X174434329Y-96495425D01*
X174390321Y-96483632D01*
X174384581Y-96481790D01*
X174339025Y-96464692D01*
X174281456Y-96454245D01*
X174276480Y-96453128D01*
X174222977Y-96438793D01*
X174174327Y-96434536D01*
X174168659Y-96433775D01*
X174117551Y-96424500D01*
X174117547Y-96424500D01*
X174062309Y-96424500D01*
X174056907Y-96424264D01*
X174028451Y-96421774D01*
X174005002Y-96419723D01*
X174004997Y-96419723D01*
X173952050Y-96424355D01*
X173948862Y-96424499D01*
X173948851Y-96424500D01*
X173948845Y-96424500D01*
X173902671Y-96428655D01*
X173894826Y-96429361D01*
X173787020Y-96438793D01*
X173786468Y-96438891D01*
X173781275Y-96439581D01*
X173780812Y-96439622D01*
X173780809Y-96439623D01*
X173677002Y-96468273D01*
X173575659Y-96495428D01*
X173568739Y-96497946D01*
X173564050Y-96499444D01*
X173563849Y-96499499D01*
X173563832Y-96499505D01*
X173469528Y-96544919D01*
X173377358Y-96587899D01*
X173372670Y-96590606D01*
X173372598Y-96590481D01*
X173361871Y-96596764D01*
X173361030Y-96597168D01*
X173278831Y-96656889D01*
X173198123Y-96713401D01*
X173197241Y-96714284D01*
X173182461Y-96726906D01*
X173178928Y-96729472D01*
X173178916Y-96729483D01*
X173147477Y-96762366D01*
X173110868Y-96800656D01*
X173088379Y-96823144D01*
X173043403Y-96868120D01*
X173043402Y-96868121D01*
X173040711Y-96871965D01*
X173028773Y-96886521D01*
X173023368Y-96892174D01*
X173002476Y-96923822D01*
X172970828Y-96971768D01*
X172918587Y-97046378D01*
X172917898Y-97047362D01*
X172917891Y-97047374D01*
X172914457Y-97054738D01*
X172905572Y-97070628D01*
X172899362Y-97080035D01*
X172899362Y-97080036D01*
X172872129Y-97143752D01*
X172863108Y-97164858D01*
X172855331Y-97181536D01*
X172825425Y-97245669D01*
X172825424Y-97245671D01*
X172822425Y-97256860D01*
X172816681Y-97273475D01*
X172810899Y-97287005D01*
X172810896Y-97287016D01*
X172791063Y-97373907D01*
X172768793Y-97457022D01*
X172768793Y-97457023D01*
X172767112Y-97476226D01*
X172765793Y-97484619D01*
X172764492Y-97490323D01*
X172760809Y-97506459D01*
X172760809Y-97506464D01*
X172756949Y-97592397D01*
X172749723Y-97674996D01*
X172749723Y-97675003D01*
X142813495Y-97675003D01*
X147663495Y-92825003D01*
X172749723Y-92825003D01*
X172751688Y-92847470D01*
X172751862Y-92855660D01*
X172750709Y-92881324D01*
X172750710Y-92881328D01*
X172761641Y-92962031D01*
X172761966Y-92964949D01*
X172768792Y-93042972D01*
X172768795Y-93042987D01*
X172775482Y-93067941D01*
X172777034Y-93075670D01*
X172780924Y-93104381D01*
X172780926Y-93104392D01*
X172805075Y-93178713D01*
X172805997Y-93181825D01*
X172825423Y-93254324D01*
X172825427Y-93254336D01*
X172837736Y-93280732D01*
X172840512Y-93287779D01*
X172850483Y-93318464D01*
X172885970Y-93384411D01*
X172887558Y-93387576D01*
X172917898Y-93452639D01*
X172936490Y-93479191D01*
X172940303Y-93485378D01*
X172957146Y-93516678D01*
X172957152Y-93516687D01*
X173001792Y-93572663D01*
X173004106Y-93575758D01*
X173035296Y-93620301D01*
X173043402Y-93631877D01*
X173043405Y-93631880D01*
X173068646Y-93657121D01*
X173073283Y-93662309D01*
X173097492Y-93692666D01*
X173148959Y-93737632D01*
X173152008Y-93740483D01*
X173198116Y-93786592D01*
X173198122Y-93786597D01*
X173198123Y-93786598D01*
X173202268Y-93789500D01*
X173230055Y-93808957D01*
X173235290Y-93813057D01*
X173267004Y-93840765D01*
X173267013Y-93840771D01*
X173322849Y-93874131D01*
X173326613Y-93876568D01*
X173377359Y-93912101D01*
X173377364Y-93912104D01*
X173395531Y-93920575D01*
X173415677Y-93929969D01*
X173421271Y-93932935D01*
X173458349Y-93955088D01*
X173460236Y-93956215D01*
X173478828Y-93963192D01*
X173518083Y-93977925D01*
X173522503Y-93979782D01*
X173575670Y-94004575D01*
X173575674Y-94004577D01*
X173606069Y-94012720D01*
X173619677Y-94016366D01*
X173625413Y-94018207D01*
X173642264Y-94024531D01*
X173670976Y-94035307D01*
X173728545Y-94045754D01*
X173733511Y-94046868D01*
X173787023Y-94061207D01*
X173835689Y-94065464D01*
X173841306Y-94066218D01*
X173892453Y-94075500D01*
X173947691Y-94075500D01*
X173953092Y-94075735D01*
X173981548Y-94078225D01*
X174004998Y-94080277D01*
X174005000Y-94080277D01*
X174057992Y-94075640D01*
X174061121Y-94075500D01*
X174061155Y-94075500D01*
X174115172Y-94070638D01*
X174222977Y-94061207D01*
X174223000Y-94061200D01*
X174223475Y-94061117D01*
X174228713Y-94060419D01*
X174229188Y-94060377D01*
X174332997Y-94031726D01*
X174434330Y-94004575D01*
X174434337Y-94004571D01*
X174441254Y-94002053D01*
X174445948Y-94000554D01*
X174446170Y-94000493D01*
X174446181Y-94000487D01*
X174446183Y-94000487D01*
X174540454Y-93955088D01*
X174566690Y-93942854D01*
X174632639Y-93912102D01*
X174632644Y-93912097D01*
X174637327Y-93909395D01*
X174637400Y-93909522D01*
X174648164Y-93903218D01*
X174648973Y-93902829D01*
X174731156Y-93843118D01*
X174811877Y-93786598D01*
X174812747Y-93785727D01*
X174827550Y-93773084D01*
X174831078Y-93770522D01*
X174845262Y-93755687D01*
X174899131Y-93699343D01*
X174966592Y-93631883D01*
X174966592Y-93631882D01*
X174966598Y-93631877D01*
X174969285Y-93628039D01*
X174981239Y-93613465D01*
X174986577Y-93607883D01*
X174986632Y-93607825D01*
X175039164Y-93528241D01*
X175092102Y-93452639D01*
X175095543Y-93445259D01*
X175104432Y-93429364D01*
X175110635Y-93419968D01*
X175146889Y-93335146D01*
X175184575Y-93254330D01*
X175187570Y-93243148D01*
X175193325Y-93226505D01*
X175195024Y-93222531D01*
X175199103Y-93212988D01*
X175218936Y-93126092D01*
X175241207Y-93042977D01*
X175242887Y-93023766D01*
X175244206Y-93015377D01*
X175245508Y-93009672D01*
X175249191Y-92993537D01*
X175253050Y-92907602D01*
X175260277Y-92825000D01*
X175258310Y-92802528D01*
X175258137Y-92794334D01*
X175259290Y-92768670D01*
X175248353Y-92687939D01*
X175248034Y-92685067D01*
X175241207Y-92607023D01*
X175234515Y-92582053D01*
X175232963Y-92574322D01*
X175229076Y-92545618D01*
X175229075Y-92545616D01*
X175229075Y-92545613D01*
X175222377Y-92525000D01*
X175629700Y-92525000D01*
X175634642Y-92584653D01*
X175636955Y-92612567D01*
X175640819Y-92703523D01*
X175640820Y-92703534D01*
X175645939Y-92727284D01*
X175647120Y-92735233D01*
X175648865Y-92756301D01*
X175648865Y-92756304D01*
X175648866Y-92756305D01*
X175670772Y-92842812D01*
X175671205Y-92844519D01*
X175691046Y-92936582D01*
X175698883Y-92956084D01*
X175701458Y-92963987D01*
X175705844Y-92981303D01*
X175743655Y-93067504D01*
X175779934Y-93157787D01*
X175779935Y-93157788D01*
X175789232Y-93172888D01*
X175793218Y-93180495D01*
X175799076Y-93193850D01*
X175852275Y-93275277D01*
X175904930Y-93360794D01*
X175911543Y-93368308D01*
X175922263Y-93382402D01*
X175923576Y-93384411D01*
X175926021Y-93388153D01*
X175994027Y-93462028D01*
X176062436Y-93539755D01*
X176067564Y-93543895D01*
X176080882Y-93556377D01*
X176083216Y-93558913D01*
X176164933Y-93622515D01*
X176247920Y-93689523D01*
X176247922Y-93689524D01*
X176250678Y-93691064D01*
X176266360Y-93701460D01*
X176266367Y-93701465D01*
X176266371Y-93701467D01*
X176266374Y-93701470D01*
X176350777Y-93747146D01*
X176360162Y-93752225D01*
X176456046Y-93805790D01*
X176458849Y-93807058D01*
X176465695Y-93810097D01*
X176465794Y-93809873D01*
X176470490Y-93811932D01*
X176470497Y-93811936D01*
X176574276Y-93847563D01*
X176680829Y-93885211D01*
X176681398Y-93885308D01*
X176686129Y-93886312D01*
X176690007Y-93887294D01*
X176690019Y-93887298D01*
X176800227Y-93905688D01*
X176801324Y-93905871D01*
X176915791Y-93925499D01*
X176915800Y-93925500D01*
X177151044Y-93925500D01*
X177151049Y-93925500D01*
X177184073Y-93919988D01*
X177207469Y-93916085D01*
X177212407Y-93915463D01*
X177272541Y-93910346D01*
X177324615Y-93896786D01*
X177330017Y-93895634D01*
X177379981Y-93887298D01*
X177437186Y-93867658D01*
X177441663Y-93866309D01*
X177503249Y-93850275D01*
X177509249Y-93847563D01*
X177519082Y-93843118D01*
X177549297Y-93829459D01*
X177554681Y-93827322D01*
X177599503Y-93811936D01*
X177655554Y-93781601D01*
X177659527Y-93779632D01*
X177668156Y-93775730D01*
X177720486Y-93752077D01*
X177759647Y-93725608D01*
X177764820Y-93722469D01*
X177803626Y-93701470D01*
X177856532Y-93660290D01*
X177859850Y-93657881D01*
X177918003Y-93618579D01*
X177949770Y-93588131D01*
X177954548Y-93584002D01*
X177986784Y-93558913D01*
X177989109Y-93556388D01*
X178004420Y-93539755D01*
X178034389Y-93507198D01*
X178037101Y-93504432D01*
X178090118Y-93453621D01*
X178114329Y-93420883D01*
X178118540Y-93415785D01*
X178143979Y-93388153D01*
X178144348Y-93387589D01*
X178184205Y-93326581D01*
X178186241Y-93323652D01*
X178231879Y-93261947D01*
X178248733Y-93228517D01*
X178252170Y-93222552D01*
X178270924Y-93193849D01*
X178301805Y-93123445D01*
X178303174Y-93120538D01*
X178339207Y-93049074D01*
X178349208Y-93016413D01*
X178351701Y-93009694D01*
X178364157Y-92981300D01*
X178383827Y-92903621D01*
X178384635Y-92900732D01*
X178409016Y-92821123D01*
X178412936Y-92790508D01*
X178414330Y-92783170D01*
X178421134Y-92756305D01*
X178428132Y-92671845D01*
X178439298Y-92584654D01*
X178438126Y-92557079D01*
X178438281Y-92549355D01*
X178440300Y-92525000D01*
X178440209Y-92523907D01*
X178433044Y-92437432D01*
X178429849Y-92362222D01*
X178429180Y-92346468D01*
X178424059Y-92322709D01*
X178422879Y-92314762D01*
X178421134Y-92293695D01*
X178421133Y-92293692D01*
X178421133Y-92293688D01*
X178398794Y-92205480D01*
X178397045Y-92197363D01*
X178378954Y-92113419D01*
X178371115Y-92093912D01*
X178368541Y-92086015D01*
X178364157Y-92068700D01*
X178326344Y-91982495D01*
X178290064Y-91892210D01*
X178280768Y-91877112D01*
X178276779Y-91869500D01*
X178270924Y-91856151D01*
X178217724Y-91774721D01*
X178165071Y-91689208D01*
X178165070Y-91689207D01*
X178165069Y-91689205D01*
X178158451Y-91681686D01*
X178147727Y-91667584D01*
X178143978Y-91661845D01*
X178075972Y-91587971D01*
X178007565Y-91510246D01*
X178002439Y-91506107D01*
X177989117Y-91493621D01*
X177986785Y-91491088D01*
X177986783Y-91491086D01*
X177905066Y-91427484D01*
X177822080Y-91360477D01*
X177822073Y-91360472D01*
X177819311Y-91358929D01*
X177803643Y-91348542D01*
X177803634Y-91348535D01*
X177803628Y-91348532D01*
X177803626Y-91348530D01*
X177709837Y-91297774D01*
X177613954Y-91244210D01*
X177613953Y-91244209D01*
X177613952Y-91244209D01*
X177611381Y-91243047D01*
X177604284Y-91239898D01*
X177604188Y-91240119D01*
X177599506Y-91238065D01*
X177495723Y-91202436D01*
X177389168Y-91164788D01*
X177389160Y-91164786D01*
X177388612Y-91164692D01*
X177383889Y-91163691D01*
X177379989Y-91162703D01*
X177268675Y-91144128D01*
X177154209Y-91124500D01*
X177154200Y-91124500D01*
X177151049Y-91124500D01*
X176918951Y-91124500D01*
X176918950Y-91124500D01*
X176862533Y-91133913D01*
X176857587Y-91134535D01*
X176855099Y-91134747D01*
X176797469Y-91139652D01*
X176797461Y-91139653D01*
X176745397Y-91153208D01*
X176739981Y-91154363D01*
X176690013Y-91162703D01*
X176632840Y-91182331D01*
X176628330Y-91183690D01*
X176566749Y-91199725D01*
X176566744Y-91199727D01*
X176520711Y-91220535D01*
X176515304Y-91222680D01*
X176470503Y-91238060D01*
X176470498Y-91238063D01*
X176414448Y-91268395D01*
X176410478Y-91270363D01*
X176349514Y-91297922D01*
X176310359Y-91324385D01*
X176305149Y-91327544D01*
X176266379Y-91348526D01*
X176266367Y-91348533D01*
X176213487Y-91389692D01*
X176210124Y-91392133D01*
X176152001Y-91431417D01*
X176151994Y-91431422D01*
X176120248Y-91461847D01*
X176115430Y-91466011D01*
X176083218Y-91491085D01*
X176083209Y-91491093D01*
X176035613Y-91542795D01*
X176032900Y-91545564D01*
X175979882Y-91596378D01*
X175979880Y-91596380D01*
X175955681Y-91629098D01*
X175951448Y-91634223D01*
X175926022Y-91661845D01*
X175885797Y-91723412D01*
X175883741Y-91726367D01*
X175838124Y-91788047D01*
X175838120Y-91788054D01*
X175821268Y-91821475D01*
X175817811Y-91827472D01*
X175799076Y-91856149D01*
X175768219Y-91926496D01*
X175766803Y-91929503D01*
X175730790Y-92000931D01*
X175720792Y-92033573D01*
X175718288Y-92040323D01*
X175705845Y-92068691D01*
X175705845Y-92068692D01*
X175686178Y-92146347D01*
X175685358Y-92149279D01*
X175660984Y-92228876D01*
X175660983Y-92228879D01*
X175657063Y-92259485D01*
X175655668Y-92266830D01*
X175648867Y-92293688D01*
X175648864Y-92293705D01*
X175641867Y-92378154D01*
X175630702Y-92465344D01*
X175630701Y-92465344D01*
X175631872Y-92492900D01*
X175631716Y-92500655D01*
X175629700Y-92524995D01*
X175629700Y-92525000D01*
X175222377Y-92525000D01*
X175204921Y-92471276D01*
X175203998Y-92468161D01*
X175184576Y-92395673D01*
X175184574Y-92395669D01*
X175172266Y-92369274D01*
X175169488Y-92362222D01*
X175159519Y-92331541D01*
X175159517Y-92331537D01*
X175159517Y-92331536D01*
X175146988Y-92308253D01*
X175124027Y-92265583D01*
X175122432Y-92262405D01*
X175107338Y-92230036D01*
X175092102Y-92197362D01*
X175073512Y-92170813D01*
X175069698Y-92164625D01*
X175059862Y-92146347D01*
X175052852Y-92133319D01*
X175008192Y-92077318D01*
X175005896Y-92074247D01*
X174966598Y-92018123D01*
X174941353Y-91992878D01*
X174936715Y-91987689D01*
X174912506Y-91957332D01*
X174861039Y-91912366D01*
X174857990Y-91909515D01*
X174811878Y-91863402D01*
X174779940Y-91841039D01*
X174774705Y-91836939D01*
X174760542Y-91824565D01*
X174742996Y-91809235D01*
X174742994Y-91809233D01*
X174742992Y-91809232D01*
X174687149Y-91775868D01*
X174683386Y-91773431D01*
X174632641Y-91737899D01*
X174607911Y-91726367D01*
X174594332Y-91720034D01*
X174588735Y-91717067D01*
X174549769Y-91693787D01*
X174549767Y-91693786D01*
X174491928Y-91672079D01*
X174487515Y-91670226D01*
X174434330Y-91645425D01*
X174434329Y-91645425D01*
X174390321Y-91633632D01*
X174384581Y-91631790D01*
X174339025Y-91614692D01*
X174281456Y-91604245D01*
X174276480Y-91603128D01*
X174222977Y-91588793D01*
X174174327Y-91584536D01*
X174168659Y-91583775D01*
X174117551Y-91574500D01*
X174117547Y-91574500D01*
X174062309Y-91574500D01*
X174056907Y-91574264D01*
X174028451Y-91571774D01*
X174005002Y-91569723D01*
X174004997Y-91569723D01*
X173952050Y-91574355D01*
X173948862Y-91574499D01*
X173948851Y-91574500D01*
X173948845Y-91574500D01*
X173902671Y-91578655D01*
X173894826Y-91579361D01*
X173787020Y-91588793D01*
X173786468Y-91588891D01*
X173781275Y-91589581D01*
X173780812Y-91589622D01*
X173780809Y-91589623D01*
X173677002Y-91618273D01*
X173575659Y-91645428D01*
X173568739Y-91647946D01*
X173564050Y-91649444D01*
X173563849Y-91649499D01*
X173563832Y-91649505D01*
X173469528Y-91694919D01*
X173377358Y-91737899D01*
X173372670Y-91740606D01*
X173372598Y-91740481D01*
X173361871Y-91746764D01*
X173361030Y-91747168D01*
X173278831Y-91806889D01*
X173198123Y-91863401D01*
X173197241Y-91864284D01*
X173182461Y-91876906D01*
X173178928Y-91879472D01*
X173178916Y-91879483D01*
X173147477Y-91912366D01*
X173110868Y-91950656D01*
X173088379Y-91973144D01*
X173043403Y-92018120D01*
X173043402Y-92018121D01*
X173040711Y-92021965D01*
X173028773Y-92036521D01*
X173023368Y-92042174D01*
X173005864Y-92068692D01*
X172970828Y-92121768D01*
X172917898Y-92197362D01*
X172917891Y-92197374D01*
X172914457Y-92204738D01*
X172905572Y-92220628D01*
X172899362Y-92230035D01*
X172899362Y-92230036D01*
X172872157Y-92293688D01*
X172863108Y-92314858D01*
X172848037Y-92347179D01*
X172825425Y-92395669D01*
X172825424Y-92395671D01*
X172822425Y-92406860D01*
X172816681Y-92423475D01*
X172810899Y-92437005D01*
X172810896Y-92437016D01*
X172791063Y-92523907D01*
X172768793Y-92607022D01*
X172768793Y-92607023D01*
X172767112Y-92626226D01*
X172765793Y-92634625D01*
X172760809Y-92656459D01*
X172760809Y-92656464D01*
X172756949Y-92742397D01*
X172749723Y-92824996D01*
X172749723Y-92825003D01*
X147663495Y-92825003D01*
X152344742Y-88143756D01*
X152359525Y-88131130D01*
X152370871Y-88122888D01*
X152417339Y-88071278D01*
X152419540Y-88068958D01*
X152435120Y-88053380D01*
X152448975Y-88036268D01*
X152451054Y-88033834D01*
X152497533Y-87982216D01*
X152504537Y-87970083D01*
X152515563Y-87954041D01*
X152524382Y-87943150D01*
X152530897Y-87930365D01*
X152555919Y-87881252D01*
X152557442Y-87878447D01*
X152592179Y-87818284D01*
X152596509Y-87804956D01*
X152603958Y-87786974D01*
X152611290Y-87772585D01*
X152659265Y-87721790D01*
X152708520Y-87705592D01*
X152722483Y-87704091D01*
X152810081Y-87671419D01*
X152857331Y-87653796D01*
X152960690Y-87576421D01*
X153026152Y-87552004D01*
X153094425Y-87566855D01*
X153109303Y-87576416D01*
X153198210Y-87642972D01*
X153212668Y-87653795D01*
X153212671Y-87653797D01*
X153347517Y-87704091D01*
X153347516Y-87704091D01*
X153354444Y-87704835D01*
X153407127Y-87710500D01*
X154243319Y-87710499D01*
X154248724Y-87710734D01*
X154305000Y-87715659D01*
X154361275Y-87710734D01*
X154366681Y-87710499D01*
X155202871Y-87710499D01*
X155202872Y-87710499D01*
X155262483Y-87704091D01*
X155397331Y-87653796D01*
X155500690Y-87576421D01*
X155566152Y-87552004D01*
X155634425Y-87566855D01*
X155649303Y-87576416D01*
X155738210Y-87642972D01*
X155752668Y-87653795D01*
X155752671Y-87653797D01*
X155887517Y-87704091D01*
X155887516Y-87704091D01*
X155894444Y-87704835D01*
X155947127Y-87710500D01*
X156783319Y-87710499D01*
X156788724Y-87710734D01*
X156845000Y-87715659D01*
X156901275Y-87710734D01*
X156906681Y-87710499D01*
X157742871Y-87710499D01*
X157742872Y-87710499D01*
X157802483Y-87704091D01*
X157937331Y-87653796D01*
X158040690Y-87576421D01*
X158106152Y-87552004D01*
X158174425Y-87566855D01*
X158189303Y-87576416D01*
X158278210Y-87642972D01*
X158292668Y-87653795D01*
X158292671Y-87653797D01*
X158427517Y-87704091D01*
X158427516Y-87704091D01*
X158434444Y-87704835D01*
X158487127Y-87710500D01*
X160282872Y-87710499D01*
X160342483Y-87704091D01*
X160477331Y-87653796D01*
X160580690Y-87576421D01*
X160646152Y-87552004D01*
X160714425Y-87566855D01*
X160729303Y-87576416D01*
X160818210Y-87642972D01*
X160832668Y-87653795D01*
X160832671Y-87653797D01*
X160967517Y-87704091D01*
X160967516Y-87704091D01*
X160974444Y-87704835D01*
X161027127Y-87710500D01*
X161863319Y-87710499D01*
X161868724Y-87710734D01*
X161925000Y-87715659D01*
X161981275Y-87710734D01*
X161986681Y-87710499D01*
X162822871Y-87710499D01*
X162822872Y-87710499D01*
X162882483Y-87704091D01*
X163017331Y-87653796D01*
X163120690Y-87576421D01*
X163186152Y-87552004D01*
X163254425Y-87566855D01*
X163269303Y-87576416D01*
X163358210Y-87642972D01*
X163372668Y-87653795D01*
X163372671Y-87653797D01*
X163507517Y-87704091D01*
X163507516Y-87704091D01*
X163514444Y-87704835D01*
X163567127Y-87710500D01*
X164403319Y-87710499D01*
X164408724Y-87710734D01*
X164465000Y-87715659D01*
X164521275Y-87710734D01*
X164526681Y-87710499D01*
X165362871Y-87710499D01*
X165362872Y-87710499D01*
X165422483Y-87704091D01*
X165557331Y-87653796D01*
X165660690Y-87576421D01*
X165726152Y-87552004D01*
X165794425Y-87566855D01*
X165809303Y-87576416D01*
X165898210Y-87642972D01*
X165912668Y-87653795D01*
X165912671Y-87653797D01*
X166047517Y-87704091D01*
X166047516Y-87704091D01*
X166054444Y-87704835D01*
X166107127Y-87710500D01*
X166943319Y-87710499D01*
X166948724Y-87710734D01*
X167005000Y-87715659D01*
X167061275Y-87710734D01*
X167066681Y-87710499D01*
X167902871Y-87710499D01*
X167902872Y-87710499D01*
X167962483Y-87704091D01*
X168097331Y-87653796D01*
X168200690Y-87576421D01*
X168266152Y-87552004D01*
X168334425Y-87566855D01*
X168349303Y-87576416D01*
X168438210Y-87642972D01*
X168452668Y-87653795D01*
X168452671Y-87653797D01*
X168587517Y-87704091D01*
X168587516Y-87704091D01*
X168594444Y-87704835D01*
X168647127Y-87710500D01*
X169483319Y-87710499D01*
X169488724Y-87710734D01*
X169545000Y-87715659D01*
X169601275Y-87710734D01*
X169606681Y-87710499D01*
X170442871Y-87710499D01*
X170442872Y-87710499D01*
X170502483Y-87704091D01*
X170637331Y-87653796D01*
X170740690Y-87576421D01*
X170806152Y-87552004D01*
X170874425Y-87566855D01*
X170889303Y-87576416D01*
X170978210Y-87642972D01*
X170992668Y-87653795D01*
X170992671Y-87653797D01*
X171127517Y-87704091D01*
X171127516Y-87704091D01*
X171134444Y-87704835D01*
X171187127Y-87710500D01*
X172982872Y-87710499D01*
X173042483Y-87704091D01*
X173177331Y-87653796D01*
X173280690Y-87576421D01*
X173346152Y-87552004D01*
X173414425Y-87566855D01*
X173429303Y-87576416D01*
X173518210Y-87642972D01*
X173532668Y-87653795D01*
X173532671Y-87653797D01*
X173667517Y-87704091D01*
X173667516Y-87704091D01*
X173674444Y-87704835D01*
X173727127Y-87710500D01*
X174563319Y-87710499D01*
X174568724Y-87710734D01*
X174625000Y-87715659D01*
X174681275Y-87710734D01*
X174686681Y-87710499D01*
X175522871Y-87710499D01*
X175522872Y-87710499D01*
X175582483Y-87704091D01*
X175717331Y-87653796D01*
X175820690Y-87576421D01*
X175886152Y-87552004D01*
X175954425Y-87566855D01*
X175969303Y-87576416D01*
X176058210Y-87642972D01*
X176072668Y-87653795D01*
X176072671Y-87653797D01*
X176207517Y-87704091D01*
X176207516Y-87704091D01*
X176214444Y-87704835D01*
X176267127Y-87710500D01*
X177103319Y-87710499D01*
X177108724Y-87710734D01*
X177165000Y-87715659D01*
X177221275Y-87710734D01*
X177226681Y-87710499D01*
X178062871Y-87710499D01*
X178062872Y-87710499D01*
X178122483Y-87704091D01*
X178257331Y-87653796D01*
X178372546Y-87567546D01*
X178458796Y-87452331D01*
X178509091Y-87317483D01*
X178515500Y-87257873D01*
X178515499Y-86421675D01*
X178515735Y-86416268D01*
X178516880Y-86403181D01*
X178520659Y-86360000D01*
X178515735Y-86303725D01*
X178515499Y-86298321D01*
X178515499Y-83662129D01*
X178515498Y-83662123D01*
X178509091Y-83602516D01*
X178458797Y-83467671D01*
X178458793Y-83467664D01*
X178372547Y-83352455D01*
X178372544Y-83352452D01*
X178257335Y-83266206D01*
X178257328Y-83266202D01*
X178122482Y-83215908D01*
X178122483Y-83215908D01*
X178062883Y-83209501D01*
X178062881Y-83209500D01*
X178062873Y-83209500D01*
X178062864Y-83209500D01*
X176267129Y-83209500D01*
X176267123Y-83209501D01*
X176207516Y-83215908D01*
X176072671Y-83266202D01*
X176072669Y-83266203D01*
X175969311Y-83343578D01*
X175903847Y-83367995D01*
X175835574Y-83353144D01*
X175820689Y-83343578D01*
X175717330Y-83266203D01*
X175717328Y-83266202D01*
X175582482Y-83215908D01*
X175582483Y-83215908D01*
X175522883Y-83209501D01*
X175522881Y-83209500D01*
X175522873Y-83209500D01*
X175522864Y-83209500D01*
X173727129Y-83209500D01*
X173727123Y-83209501D01*
X173667516Y-83215908D01*
X173532671Y-83266202D01*
X173532669Y-83266203D01*
X173429311Y-83343578D01*
X173363847Y-83367995D01*
X173295574Y-83353144D01*
X173280689Y-83343578D01*
X173177330Y-83266203D01*
X173177328Y-83266202D01*
X173042482Y-83215908D01*
X173042483Y-83215908D01*
X172982883Y-83209501D01*
X172982881Y-83209500D01*
X172982873Y-83209500D01*
X172982864Y-83209500D01*
X171187129Y-83209500D01*
X171187123Y-83209501D01*
X171127516Y-83215908D01*
X170992671Y-83266202D01*
X170992669Y-83266203D01*
X170889311Y-83343578D01*
X170823847Y-83367995D01*
X170755574Y-83353144D01*
X170740689Y-83343578D01*
X170637330Y-83266203D01*
X170637328Y-83266202D01*
X170502482Y-83215908D01*
X170502483Y-83215908D01*
X170442883Y-83209501D01*
X170442881Y-83209500D01*
X170442873Y-83209500D01*
X170442864Y-83209500D01*
X168647129Y-83209500D01*
X168647123Y-83209501D01*
X168587516Y-83215908D01*
X168452671Y-83266202D01*
X168452669Y-83266203D01*
X168349311Y-83343578D01*
X168283847Y-83367995D01*
X168215574Y-83353144D01*
X168200689Y-83343578D01*
X168097330Y-83266203D01*
X168097328Y-83266202D01*
X167962482Y-83215908D01*
X167962483Y-83215908D01*
X167902883Y-83209501D01*
X167902881Y-83209500D01*
X167902873Y-83209500D01*
X167902864Y-83209500D01*
X166107129Y-83209500D01*
X166107123Y-83209501D01*
X166047516Y-83215908D01*
X165912671Y-83266202D01*
X165912669Y-83266203D01*
X165809311Y-83343578D01*
X165743847Y-83367995D01*
X165675574Y-83353144D01*
X165660689Y-83343578D01*
X165557330Y-83266203D01*
X165557328Y-83266202D01*
X165422482Y-83215908D01*
X165422483Y-83215908D01*
X165362883Y-83209501D01*
X165362881Y-83209500D01*
X165362873Y-83209500D01*
X165362864Y-83209500D01*
X163567129Y-83209500D01*
X163567123Y-83209501D01*
X163507516Y-83215908D01*
X163372671Y-83266202D01*
X163372669Y-83266203D01*
X163269311Y-83343578D01*
X163203847Y-83367995D01*
X163135574Y-83353144D01*
X163120689Y-83343578D01*
X163017330Y-83266203D01*
X163017328Y-83266202D01*
X162882482Y-83215908D01*
X162882483Y-83215908D01*
X162822883Y-83209501D01*
X162822881Y-83209500D01*
X162822873Y-83209500D01*
X162822864Y-83209500D01*
X161027129Y-83209500D01*
X161027123Y-83209501D01*
X160967516Y-83215908D01*
X160832671Y-83266202D01*
X160832669Y-83266203D01*
X160729311Y-83343578D01*
X160663847Y-83367995D01*
X160595574Y-83353144D01*
X160580689Y-83343578D01*
X160477330Y-83266203D01*
X160477328Y-83266202D01*
X160342482Y-83215908D01*
X160342483Y-83215908D01*
X160282883Y-83209501D01*
X160282881Y-83209500D01*
X160282873Y-83209500D01*
X160282864Y-83209500D01*
X158487129Y-83209500D01*
X158487123Y-83209501D01*
X158427516Y-83215908D01*
X158292671Y-83266202D01*
X158292669Y-83266203D01*
X158189311Y-83343578D01*
X158123847Y-83367995D01*
X158055574Y-83353144D01*
X158040689Y-83343578D01*
X157937330Y-83266203D01*
X157937328Y-83266202D01*
X157802482Y-83215908D01*
X157802483Y-83215908D01*
X157742883Y-83209501D01*
X157742881Y-83209500D01*
X157742873Y-83209500D01*
X157742864Y-83209500D01*
X155947129Y-83209500D01*
X155947123Y-83209501D01*
X155887516Y-83215908D01*
X155752671Y-83266202D01*
X155752669Y-83266203D01*
X155649311Y-83343578D01*
X155583847Y-83367995D01*
X155515574Y-83353144D01*
X155500689Y-83343578D01*
X155397330Y-83266203D01*
X155397328Y-83266202D01*
X155262482Y-83215908D01*
X155262483Y-83215908D01*
X155202883Y-83209501D01*
X155202881Y-83209500D01*
X155202873Y-83209500D01*
X155202864Y-83209500D01*
X153407129Y-83209500D01*
X153407123Y-83209501D01*
X153347516Y-83215908D01*
X153212671Y-83266202D01*
X153212669Y-83266203D01*
X153109311Y-83343578D01*
X153043847Y-83367995D01*
X152975574Y-83353144D01*
X152960689Y-83343578D01*
X152857330Y-83266203D01*
X152857328Y-83266202D01*
X152722482Y-83215908D01*
X152722483Y-83215908D01*
X152662883Y-83209501D01*
X152662881Y-83209500D01*
X152662873Y-83209500D01*
X152662864Y-83209500D01*
X150867129Y-83209500D01*
X150867123Y-83209501D01*
X150807516Y-83215908D01*
X150672671Y-83266202D01*
X150672669Y-83266203D01*
X150569311Y-83343578D01*
X150503847Y-83367995D01*
X150435574Y-83353144D01*
X150420689Y-83343578D01*
X150317330Y-83266203D01*
X150317328Y-83266202D01*
X150182482Y-83215908D01*
X150182483Y-83215908D01*
X150122883Y-83209501D01*
X150122881Y-83209500D01*
X150122873Y-83209500D01*
X150122864Y-83209500D01*
X148327129Y-83209500D01*
X148327123Y-83209501D01*
X148267516Y-83215908D01*
X148132671Y-83266202D01*
X148132669Y-83266203D01*
X148029311Y-83343578D01*
X147963847Y-83367995D01*
X147895574Y-83353144D01*
X147880689Y-83343578D01*
X147777330Y-83266203D01*
X147777328Y-83266202D01*
X147642482Y-83215908D01*
X147642483Y-83215908D01*
X147582883Y-83209501D01*
X147582881Y-83209500D01*
X147582873Y-83209500D01*
X147582864Y-83209500D01*
X145787129Y-83209500D01*
X145787123Y-83209501D01*
X145727516Y-83215908D01*
X145592671Y-83266202D01*
X145592669Y-83266203D01*
X145489311Y-83343578D01*
X145423847Y-83367995D01*
X145355574Y-83353144D01*
X145340689Y-83343578D01*
X145237330Y-83266203D01*
X145237328Y-83266202D01*
X145102482Y-83215908D01*
X145102483Y-83215908D01*
X145042883Y-83209501D01*
X145042881Y-83209500D01*
X145042873Y-83209500D01*
X145042864Y-83209500D01*
X143247129Y-83209500D01*
X143247123Y-83209501D01*
X143187516Y-83215908D01*
X143052671Y-83266202D01*
X143052669Y-83266203D01*
X142949311Y-83343578D01*
X142883847Y-83367995D01*
X142815574Y-83353144D01*
X142800689Y-83343578D01*
X142697330Y-83266203D01*
X142697328Y-83266202D01*
X142562482Y-83215908D01*
X142562483Y-83215908D01*
X142502883Y-83209501D01*
X142502881Y-83209500D01*
X142502873Y-83209500D01*
X142502864Y-83209500D01*
X140707129Y-83209500D01*
X140707123Y-83209501D01*
X140647516Y-83215908D01*
X140512671Y-83266202D01*
X140512669Y-83266203D01*
X140409311Y-83343578D01*
X140343847Y-83367995D01*
X140275574Y-83353144D01*
X140260689Y-83343578D01*
X140157330Y-83266203D01*
X140157328Y-83266202D01*
X140022482Y-83215908D01*
X140022483Y-83215908D01*
X139962883Y-83209501D01*
X139962881Y-83209500D01*
X139962873Y-83209500D01*
X139962864Y-83209500D01*
X138167129Y-83209500D01*
X138167123Y-83209501D01*
X138107516Y-83215908D01*
X137972671Y-83266202D01*
X137972669Y-83266203D01*
X137869311Y-83343578D01*
X137803847Y-83367995D01*
X137735574Y-83353144D01*
X137720689Y-83343578D01*
X137617330Y-83266203D01*
X137617328Y-83266202D01*
X137482482Y-83215908D01*
X137482483Y-83215908D01*
X137422883Y-83209501D01*
X137422881Y-83209500D01*
X137422873Y-83209500D01*
X137422864Y-83209500D01*
X135627129Y-83209500D01*
X135627123Y-83209501D01*
X135567516Y-83215908D01*
X135432671Y-83266202D01*
X135432669Y-83266203D01*
X135329311Y-83343578D01*
X135263847Y-83367995D01*
X135195574Y-83353144D01*
X135180689Y-83343578D01*
X135077330Y-83266203D01*
X135077328Y-83266202D01*
X134942482Y-83215908D01*
X134942483Y-83215908D01*
X134882883Y-83209501D01*
X134882881Y-83209500D01*
X134882873Y-83209500D01*
X134882864Y-83209500D01*
X133087129Y-83209500D01*
X133087123Y-83209501D01*
X133027516Y-83215908D01*
X132892671Y-83266202D01*
X132892669Y-83266203D01*
X132789311Y-83343578D01*
X132723847Y-83367995D01*
X132655574Y-83353144D01*
X132640689Y-83343578D01*
X132537330Y-83266203D01*
X132537328Y-83266202D01*
X132402482Y-83215908D01*
X132402483Y-83215908D01*
X132342883Y-83209501D01*
X132342881Y-83209500D01*
X132342873Y-83209500D01*
X132342865Y-83209500D01*
X131779361Y-83209500D01*
X131712322Y-83189815D01*
X131691680Y-83173181D01*
X130518764Y-82000265D01*
X130506126Y-81985468D01*
X130497887Y-81974128D01*
X130446277Y-81927657D01*
X130443922Y-81925423D01*
X130428382Y-81909882D01*
X130411295Y-81896043D01*
X130408831Y-81893939D01*
X130357220Y-81847470D01*
X130357213Y-81847465D01*
X130345070Y-81840454D01*
X130329043Y-81829438D01*
X130318153Y-81820620D01*
X130318151Y-81820619D01*
X130318149Y-81820617D01*
X130299259Y-81810992D01*
X130256266Y-81789085D01*
X130253414Y-81787537D01*
X130193282Y-81752820D01*
X130179949Y-81748488D01*
X130161978Y-81741043D01*
X130149498Y-81734684D01*
X130149486Y-81734679D01*
X130082409Y-81716705D01*
X130079309Y-81715787D01*
X130013256Y-81694326D01*
X130013251Y-81694325D01*
X130013249Y-81694325D01*
X129999314Y-81692860D01*
X129980189Y-81689315D01*
X129966653Y-81685688D01*
X129966643Y-81685686D01*
X129897290Y-81682051D01*
X129894059Y-81681797D01*
X129879537Y-81680271D01*
X129872192Y-81679500D01*
X129872189Y-81679500D01*
X129850203Y-81679500D01*
X129846959Y-81679415D01*
X129777612Y-81675781D01*
X129777611Y-81675781D01*
X129763772Y-81677973D01*
X129744373Y-81679500D01*
X96548682Y-81679500D01*
X96481643Y-81659815D01*
X96435888Y-81607011D01*
X96425944Y-81537853D01*
X96429416Y-81521565D01*
X96435115Y-81501536D01*
X96455643Y-81280000D01*
X96435115Y-81058464D01*
X96374229Y-80844472D01*
X96374224Y-80844461D01*
X96275061Y-80645316D01*
X96275056Y-80645308D01*
X96140981Y-80467764D01*
X96062410Y-80396137D01*
X96026129Y-80336425D01*
X96027890Y-80266578D01*
X96067134Y-80208770D01*
X96131401Y-80181356D01*
X96145949Y-80180500D01*
X100788808Y-80180500D01*
X100810803Y-80180500D01*
X100814046Y-80180584D01*
X100883388Y-80184219D01*
X100897227Y-80182027D01*
X100916627Y-80180500D01*
X102187808Y-80180500D01*
X120564808Y-80180500D01*
X120586803Y-80180500D01*
X120590046Y-80180584D01*
X120659388Y-80184219D01*
X120673227Y-80182027D01*
X120692627Y-80180500D01*
X121872808Y-80180500D01*
X140340808Y-80180500D01*
X140362803Y-80180500D01*
X140366046Y-80180584D01*
X140435388Y-80184219D01*
X140449227Y-80182027D01*
X140468627Y-80180500D01*
X140922808Y-80180500D01*
X160116808Y-80180500D01*
X160138803Y-80180500D01*
X160142046Y-80180584D01*
X160211388Y-80184219D01*
X160225227Y-80182027D01*
X160244627Y-80180500D01*
X161242808Y-80180500D01*
X177759373Y-80180500D01*
X177778772Y-80182027D01*
X177792612Y-80184219D01*
X177861959Y-80180584D01*
X177865203Y-80180500D01*
X177887191Y-80180500D01*
X177887192Y-80180500D01*
X177903988Y-80178734D01*
X177909064Y-80178201D01*
X177912284Y-80177947D01*
X177981646Y-80174313D01*
X177995187Y-80170683D01*
X178014313Y-80167138D01*
X178028256Y-80165674D01*
X178094306Y-80144212D01*
X178097368Y-80143304D01*
X178164488Y-80125320D01*
X178176976Y-80118956D01*
X178194950Y-80111510D01*
X178208284Y-80107179D01*
X178268476Y-80072425D01*
X178271222Y-80070934D01*
X178333149Y-80039383D01*
X178344031Y-80030569D01*
X178360083Y-80019537D01*
X178372216Y-80012533D01*
X178423847Y-79966043D01*
X178426260Y-79963982D01*
X178443380Y-79950119D01*
X178458929Y-79934568D01*
X178461277Y-79932341D01*
X178512888Y-79885871D01*
X178521130Y-79874525D01*
X178533760Y-79859737D01*
X179176679Y-79216817D01*
X179238003Y-79183333D01*
X179264361Y-79180499D01*
X179687871Y-79180499D01*
X179687872Y-79180499D01*
X179747483Y-79174091D01*
X179882331Y-79123796D01*
X179997546Y-79037546D01*
X180083796Y-78922331D01*
X180134091Y-78787483D01*
X180140500Y-78727873D01*
X180140499Y-77732128D01*
X180134091Y-77672517D01*
X180130807Y-77663713D01*
X180083797Y-77537671D01*
X180083793Y-77537664D01*
X179997547Y-77422455D01*
X179997544Y-77422452D01*
X179882335Y-77336206D01*
X179882328Y-77336202D01*
X179747482Y-77285908D01*
X179747483Y-77285908D01*
X179687883Y-77279501D01*
X179687881Y-77279500D01*
X179687873Y-77279500D01*
X179687864Y-77279500D01*
X178092129Y-77279500D01*
X178092123Y-77279501D01*
X178032516Y-77285908D01*
X177897671Y-77336202D01*
X177897664Y-77336206D01*
X177782455Y-77422452D01*
X177782452Y-77422455D01*
X177696206Y-77537664D01*
X177696202Y-77537671D01*
X177645908Y-77672517D01*
X177642828Y-77701172D01*
X177639501Y-77732123D01*
X177639500Y-77732135D01*
X177639500Y-78155638D01*
X177619815Y-78222677D01*
X177603185Y-78243314D01*
X177503318Y-78343182D01*
X177441998Y-78376666D01*
X177415639Y-78379500D01*
X175364500Y-78379500D01*
X175297461Y-78359815D01*
X175251706Y-78307011D01*
X175240500Y-78255500D01*
X175240499Y-77732129D01*
X175240498Y-77732123D01*
X175240497Y-77732116D01*
X175234091Y-77672517D01*
X175230807Y-77663713D01*
X175183797Y-77537671D01*
X175183793Y-77537664D01*
X175097547Y-77422455D01*
X175097544Y-77422452D01*
X174982335Y-77336206D01*
X174982328Y-77336202D01*
X174847482Y-77285908D01*
X174847483Y-77285908D01*
X174787883Y-77279501D01*
X174787881Y-77279500D01*
X174787873Y-77279500D01*
X174787864Y-77279500D01*
X173192129Y-77279500D01*
X173192123Y-77279501D01*
X173132516Y-77285908D01*
X173036604Y-77321682D01*
X172993271Y-77329500D01*
X162838362Y-77329500D01*
X162771323Y-77309815D01*
X162750681Y-77293181D01*
X160449680Y-74992181D01*
X160416195Y-74930858D01*
X160421179Y-74861166D01*
X160463051Y-74805233D01*
X160528515Y-74780816D01*
X160537361Y-74780500D01*
X172515639Y-74780500D01*
X172582678Y-74800185D01*
G37*
%TD.AperFunction*%
%TA.AperFunction,NonConductor*%
G36*
X182715703Y-74168333D02*
G01*
X182744418Y-74204654D01*
X189851339Y-87816383D01*
X198850920Y-105053081D01*
X198863143Y-105089089D01*
X198874634Y-105154723D01*
X198902861Y-105321675D01*
X198903694Y-105329926D01*
X198907588Y-105445136D01*
X198909868Y-105584657D01*
X198909530Y-105592221D01*
X198896708Y-105713020D01*
X198878691Y-105845842D01*
X198877398Y-105852568D01*
X198847247Y-105973022D01*
X198809994Y-106099720D01*
X198807976Y-106105507D01*
X198761409Y-106220490D01*
X198760113Y-106223465D01*
X198705212Y-106340956D01*
X198702711Y-106345750D01*
X198640331Y-106453613D01*
X198638237Y-106456980D01*
X198566515Y-106564499D01*
X198563769Y-106568296D01*
X198486903Y-106666552D01*
X198483878Y-106670131D01*
X198396773Y-106765634D01*
X198394009Y-106768477D01*
X198304353Y-106854964D01*
X198300300Y-106858545D01*
X198199454Y-106940128D01*
X198196881Y-106942101D01*
X198096493Y-107014971D01*
X198091361Y-107018322D01*
X197977359Y-107084972D01*
X197867697Y-107143231D01*
X197861480Y-107146105D01*
X197736894Y-107195563D01*
X197622739Y-107237079D01*
X197615480Y-107239227D01*
X197479482Y-107270603D01*
X197366752Y-107294548D01*
X197358542Y-107295725D01*
X197189666Y-107308512D01*
X197106145Y-107314349D01*
X197101821Y-107314500D01*
X178495286Y-107314500D01*
X178428247Y-107294815D01*
X178382492Y-107242011D01*
X178372548Y-107172853D01*
X178396019Y-107116189D01*
X178458796Y-107032331D01*
X178509091Y-106897483D01*
X178515500Y-106837873D01*
X178515499Y-104201675D01*
X178515735Y-104196274D01*
X178515736Y-104196269D01*
X178520659Y-104140000D01*
X178515734Y-104083720D01*
X178515499Y-104078316D01*
X178515499Y-103572763D01*
X191820787Y-103572763D01*
X191850413Y-103842013D01*
X191850415Y-103842024D01*
X191918926Y-104104082D01*
X191918928Y-104104088D01*
X192024870Y-104353390D01*
X192096998Y-104471575D01*
X192165979Y-104584605D01*
X192165986Y-104584615D01*
X192339253Y-104792819D01*
X192339259Y-104792824D01*
X192444240Y-104886887D01*
X192540998Y-104973582D01*
X192766910Y-105123044D01*
X193012176Y-105238020D01*
X193012183Y-105238022D01*
X193012185Y-105238023D01*
X193271557Y-105316057D01*
X193271564Y-105316058D01*
X193271569Y-105316060D01*
X193539561Y-105355500D01*
X193539566Y-105355500D01*
X193742636Y-105355500D01*
X193794133Y-105351730D01*
X193945156Y-105340677D01*
X194064769Y-105314032D01*
X194209546Y-105281782D01*
X194209548Y-105281781D01*
X194209553Y-105281780D01*
X194462558Y-105185014D01*
X194698777Y-105052441D01*
X194913177Y-104886888D01*
X195101186Y-104691881D01*
X195258799Y-104471579D01*
X195332787Y-104327669D01*
X195382649Y-104230690D01*
X195382651Y-104230684D01*
X195382656Y-104230675D01*
X195470118Y-103974305D01*
X195519319Y-103707933D01*
X195529212Y-103437235D01*
X195499586Y-103167982D01*
X195431072Y-102905912D01*
X195325130Y-102656610D01*
X195184018Y-102425390D01*
X195094747Y-102318119D01*
X195010746Y-102217180D01*
X195010740Y-102217175D01*
X194809002Y-102036418D01*
X194583092Y-101886957D01*
X194522360Y-101858487D01*
X194337824Y-101771980D01*
X194337819Y-101771978D01*
X194337814Y-101771976D01*
X194078442Y-101693942D01*
X194078428Y-101693939D01*
X193962791Y-101676921D01*
X193810439Y-101654500D01*
X193607369Y-101654500D01*
X193607364Y-101654500D01*
X193404844Y-101669323D01*
X193404831Y-101669325D01*
X193140453Y-101728217D01*
X193140446Y-101728220D01*
X192887439Y-101824987D01*
X192651226Y-101957557D01*
X192436822Y-102123112D01*
X192248822Y-102318109D01*
X192248816Y-102318116D01*
X192091202Y-102538419D01*
X192091199Y-102538424D01*
X191967350Y-102779309D01*
X191967343Y-102779327D01*
X191879884Y-103035685D01*
X191879881Y-103035699D01*
X191830681Y-103302068D01*
X191830680Y-103302075D01*
X191820787Y-103572763D01*
X178515499Y-103572763D01*
X178515499Y-103242129D01*
X178515498Y-103242123D01*
X178509091Y-103182516D01*
X178458797Y-103047671D01*
X178458793Y-103047664D01*
X178372547Y-102932455D01*
X178372544Y-102932452D01*
X178257335Y-102846206D01*
X178257328Y-102846202D01*
X178122482Y-102795908D01*
X178122483Y-102795908D01*
X178062883Y-102789501D01*
X178062881Y-102789500D01*
X178062873Y-102789500D01*
X178062865Y-102789500D01*
X177226677Y-102789500D01*
X177221275Y-102789264D01*
X177190849Y-102786602D01*
X177165002Y-102784341D01*
X177164999Y-102784341D01*
X177147750Y-102785849D01*
X177108722Y-102789264D01*
X177103322Y-102789500D01*
X176267129Y-102789500D01*
X176267123Y-102789501D01*
X176207516Y-102795908D01*
X176072671Y-102846202D01*
X176072669Y-102846203D01*
X175969311Y-102923578D01*
X175903847Y-102947995D01*
X175835574Y-102933144D01*
X175820689Y-102923578D01*
X175797090Y-102905912D01*
X175781559Y-102894285D01*
X175739689Y-102838352D01*
X175734705Y-102768660D01*
X175768188Y-102707340D01*
X182189737Y-96285791D01*
X182204525Y-96273161D01*
X182215871Y-96264919D01*
X182262347Y-96213301D01*
X182264570Y-96210959D01*
X182268047Y-96207482D01*
X182280119Y-96195411D01*
X182293982Y-96178291D01*
X182296049Y-96175872D01*
X182342533Y-96124247D01*
X182349538Y-96112111D01*
X182360570Y-96096062D01*
X182369381Y-96085182D01*
X182369383Y-96085180D01*
X182369382Y-96085180D01*
X182400934Y-96023253D01*
X182402425Y-96020507D01*
X182437179Y-95960315D01*
X182441510Y-95946981D01*
X182448956Y-95929007D01*
X182455320Y-95916519D01*
X182473304Y-95849399D01*
X182474216Y-95846326D01*
X182495674Y-95780287D01*
X182497138Y-95766344D01*
X182500683Y-95747218D01*
X182504313Y-95733677D01*
X182507947Y-95664315D01*
X182508201Y-95661095D01*
X182510499Y-95639230D01*
X182510500Y-95639222D01*
X182510500Y-95617232D01*
X182510585Y-95613987D01*
X182511621Y-95594218D01*
X182514219Y-95544643D01*
X182512027Y-95530803D01*
X182510500Y-95511404D01*
X182510500Y-74375626D01*
X182512027Y-74356225D01*
X182514219Y-74342388D01*
X182510584Y-74273040D01*
X182510500Y-74269797D01*
X182510500Y-74262046D01*
X182530185Y-74195007D01*
X182582989Y-74149252D01*
X182652147Y-74139308D01*
X182715703Y-74168333D01*
G37*
%TD.AperFunction*%
%TA.AperFunction,NonConductor*%
G36*
X75507250Y-73045185D02*
G01*
X75553005Y-73097989D01*
X75562949Y-73167147D01*
X75533924Y-73230703D01*
X75523184Y-73241649D01*
X75487114Y-73274126D01*
X75478869Y-73285474D01*
X75466236Y-73300263D01*
X74823318Y-73943181D01*
X74761995Y-73976666D01*
X74735637Y-73979500D01*
X74312129Y-73979500D01*
X74312123Y-73979501D01*
X74252516Y-73985908D01*
X74117671Y-74036202D01*
X74117664Y-74036206D01*
X74002455Y-74122452D01*
X74002452Y-74122455D01*
X73916206Y-74237664D01*
X73916202Y-74237671D01*
X73865908Y-74372517D01*
X73859501Y-74432116D01*
X73859500Y-74432135D01*
X73859500Y-74855637D01*
X73839815Y-74922676D01*
X73823181Y-74943318D01*
X71175263Y-77591236D01*
X71160474Y-77603869D01*
X71149126Y-77612114D01*
X71102666Y-77663713D01*
X71100435Y-77666065D01*
X71084890Y-77681610D01*
X71084875Y-77681627D01*
X71071039Y-77698710D01*
X71068936Y-77701172D01*
X71022469Y-77752781D01*
X71022466Y-77752785D01*
X71015458Y-77764923D01*
X71004444Y-77780948D01*
X70995626Y-77791837D01*
X70995616Y-77791853D01*
X70964082Y-77853740D01*
X70962533Y-77856592D01*
X70927821Y-77916713D01*
X70923487Y-77930053D01*
X70916045Y-77948020D01*
X70909680Y-77960512D01*
X70891706Y-78027584D01*
X70890785Y-78030692D01*
X70869326Y-78096742D01*
X70869325Y-78096745D01*
X70867860Y-78110686D01*
X70864315Y-78129812D01*
X70860686Y-78143352D01*
X70857051Y-78212710D01*
X70856797Y-78215941D01*
X70854500Y-78237810D01*
X70854500Y-78259797D01*
X70854415Y-78263042D01*
X70850781Y-78332387D01*
X70852973Y-78346225D01*
X70854500Y-78365626D01*
X70854500Y-89834373D01*
X70852973Y-89853772D01*
X70850781Y-89867611D01*
X70854415Y-89936956D01*
X70854500Y-89940201D01*
X70854500Y-89962189D01*
X70856797Y-89984059D01*
X70857051Y-89987290D01*
X70860686Y-90056643D01*
X70860688Y-90056653D01*
X70864315Y-90070189D01*
X70867860Y-90089314D01*
X70869325Y-90103249D01*
X70869326Y-90103256D01*
X70869328Y-90103262D01*
X70890784Y-90169298D01*
X70891705Y-90172409D01*
X70909679Y-90239486D01*
X70909684Y-90239498D01*
X70916043Y-90251978D01*
X70923488Y-90269949D01*
X70927820Y-90283282D01*
X70962537Y-90343414D01*
X70964085Y-90346265D01*
X70980305Y-90378097D01*
X70993203Y-90446766D01*
X70966929Y-90511507D01*
X70928278Y-90543752D01*
X70893547Y-90562316D01*
X70733589Y-90693589D01*
X70602317Y-90853547D01*
X70504769Y-91036043D01*
X70444699Y-91234067D01*
X70425650Y-91427484D01*
X70424417Y-91440000D01*
X70425653Y-91452546D01*
X70444699Y-91645932D01*
X70469099Y-91726367D01*
X70504768Y-91843954D01*
X70602315Y-92026450D01*
X70615220Y-92042175D01*
X70733589Y-92186410D01*
X70822633Y-92259485D01*
X70893550Y-92317685D01*
X71076046Y-92415232D01*
X71274066Y-92475300D01*
X71274065Y-92475300D01*
X71312647Y-92479100D01*
X71428392Y-92490500D01*
X71428395Y-92490500D01*
X71531605Y-92490500D01*
X71531608Y-92490500D01*
X71685934Y-92475300D01*
X71883954Y-92415232D01*
X72066450Y-92317685D01*
X72226410Y-92186410D01*
X72357685Y-92026450D01*
X72455232Y-91843954D01*
X72473199Y-91784722D01*
X72511495Y-91726287D01*
X72575307Y-91697830D01*
X72644374Y-91708390D01*
X72679540Y-91733039D01*
X76216235Y-95269734D01*
X76228872Y-95284529D01*
X76237113Y-95295872D01*
X76288722Y-95342341D01*
X76291078Y-95344577D01*
X76306619Y-95360118D01*
X76323702Y-95373952D01*
X76326170Y-95376060D01*
X76377781Y-95422531D01*
X76377782Y-95422531D01*
X76377784Y-95422533D01*
X76389918Y-95429538D01*
X76405955Y-95440560D01*
X76416849Y-95449382D01*
X76416851Y-95449383D01*
X76478747Y-95480920D01*
X76481552Y-95482443D01*
X76500998Y-95493670D01*
X76541707Y-95517175D01*
X76541712Y-95517177D01*
X76541713Y-95517177D01*
X76541716Y-95517179D01*
X76555050Y-95521511D01*
X76573022Y-95528956D01*
X76585512Y-95535320D01*
X76611281Y-95542225D01*
X76652596Y-95553296D01*
X76655708Y-95554218D01*
X76721741Y-95575673D01*
X76721744Y-95575674D01*
X76735684Y-95577138D01*
X76754812Y-95580684D01*
X76768354Y-95584313D01*
X76837720Y-95587947D01*
X76840935Y-95588200D01*
X76862808Y-95590500D01*
X76884797Y-95590500D01*
X76888040Y-95590584D01*
X76957388Y-95594219D01*
X76971227Y-95592027D01*
X76990627Y-95590500D01*
X79955501Y-95590500D01*
X80022540Y-95610185D01*
X80068295Y-95662989D01*
X80079501Y-95714500D01*
X80079501Y-95987876D01*
X80085908Y-96047483D01*
X80136202Y-96182328D01*
X80136206Y-96182335D01*
X80222452Y-96297544D01*
X80222455Y-96297547D01*
X80337664Y-96383793D01*
X80337671Y-96383797D01*
X80472517Y-96434091D01*
X80472516Y-96434091D01*
X80476656Y-96434536D01*
X80532127Y-96440500D01*
X81827872Y-96440499D01*
X81887483Y-96434091D01*
X82022331Y-96383796D01*
X82137546Y-96297546D01*
X82223796Y-96182331D01*
X82274091Y-96047483D01*
X82280500Y-95987873D01*
X82280499Y-94313359D01*
X82300184Y-94246321D01*
X82352987Y-94200566D01*
X82422146Y-94190622D01*
X82485702Y-94219647D01*
X82492180Y-94225679D01*
X86696638Y-98430137D01*
X86730123Y-98491460D01*
X86732787Y-98511327D01*
X86735686Y-98566643D01*
X86735688Y-98566653D01*
X86739315Y-98580189D01*
X86742860Y-98599314D01*
X86743751Y-98607787D01*
X86744326Y-98613256D01*
X86751910Y-98636599D01*
X86765784Y-98679298D01*
X86766705Y-98682409D01*
X86784679Y-98749486D01*
X86784684Y-98749498D01*
X86791043Y-98761978D01*
X86798488Y-98779949D01*
X86802820Y-98793282D01*
X86837537Y-98853414D01*
X86839085Y-98856266D01*
X86853883Y-98885307D01*
X86870617Y-98918149D01*
X86870619Y-98918151D01*
X86870620Y-98918153D01*
X86879438Y-98929043D01*
X86890454Y-98945070D01*
X86897465Y-98957213D01*
X86897470Y-98957220D01*
X86943939Y-99008831D01*
X86946043Y-99011295D01*
X86959882Y-99028382D01*
X86975423Y-99043922D01*
X86977657Y-99046277D01*
X87024128Y-99097887D01*
X87035468Y-99106126D01*
X87050265Y-99118764D01*
X89111235Y-101179734D01*
X89123872Y-101194529D01*
X89132113Y-101205872D01*
X89183722Y-101252341D01*
X89186078Y-101254577D01*
X89201619Y-101270118D01*
X89218702Y-101283952D01*
X89221170Y-101286060D01*
X89272781Y-101332531D01*
X89272782Y-101332531D01*
X89272784Y-101332533D01*
X89284918Y-101339538D01*
X89300955Y-101350560D01*
X89311849Y-101359382D01*
X89311851Y-101359383D01*
X89373747Y-101390920D01*
X89376552Y-101392443D01*
X89395998Y-101403670D01*
X89436707Y-101427175D01*
X89436715Y-101427178D01*
X89436716Y-101427179D01*
X89450046Y-101431510D01*
X89468019Y-101438954D01*
X89480512Y-101445320D01*
X89547590Y-101463292D01*
X89550699Y-101464214D01*
X89563933Y-101468514D01*
X89616744Y-101485674D01*
X89627116Y-101486763D01*
X89630684Y-101487139D01*
X89649825Y-101490687D01*
X89663348Y-101494311D01*
X89663354Y-101494312D01*
X89732711Y-101497946D01*
X89735921Y-101498199D01*
X89757808Y-101500500D01*
X89779803Y-101500500D01*
X89783046Y-101500584D01*
X89852388Y-101504219D01*
X89866227Y-101502027D01*
X89885627Y-101500500D01*
X96316639Y-101500500D01*
X96383678Y-101520185D01*
X96429433Y-101572989D01*
X96439377Y-101642147D01*
X96410352Y-101705703D01*
X96404320Y-101712181D01*
X95366436Y-102750063D01*
X95305113Y-102783548D01*
X95267954Y-102785911D01*
X95252321Y-102784544D01*
X95250000Y-102784341D01*
X95249999Y-102784341D01*
X95014596Y-102804936D01*
X95014586Y-102804938D01*
X94786344Y-102866094D01*
X94786335Y-102866098D01*
X94572171Y-102965964D01*
X94572169Y-102965965D01*
X94378597Y-103101505D01*
X94211505Y-103268597D01*
X94075965Y-103462169D01*
X94075964Y-103462171D01*
X93976098Y-103676335D01*
X93976094Y-103676344D01*
X93914938Y-103904586D01*
X93914936Y-103904596D01*
X93894341Y-104139999D01*
X93894341Y-104140000D01*
X93914936Y-104375403D01*
X93914938Y-104375413D01*
X93976094Y-104603655D01*
X93976096Y-104603659D01*
X93976097Y-104603663D01*
X94070703Y-104806546D01*
X94075965Y-104817830D01*
X94075967Y-104817834D01*
X94124319Y-104886887D01*
X94211505Y-105011401D01*
X94378599Y-105178495D01*
X94463614Y-105238023D01*
X94572165Y-105314032D01*
X94572167Y-105314033D01*
X94572170Y-105314035D01*
X94786337Y-105413903D01*
X95014592Y-105475063D01*
X95191034Y-105490500D01*
X95249999Y-105495659D01*
X95250000Y-105495659D01*
X95250001Y-105495659D01*
X95308966Y-105490500D01*
X95485408Y-105475063D01*
X95713663Y-105413903D01*
X95927830Y-105314035D01*
X96121401Y-105178495D01*
X96288495Y-105011401D01*
X96418424Y-104825842D01*
X96473002Y-104782217D01*
X96542500Y-104775023D01*
X96604855Y-104806546D01*
X96621575Y-104825842D01*
X96751500Y-105011395D01*
X96751505Y-105011401D01*
X96918599Y-105178495D01*
X97003614Y-105238023D01*
X97112165Y-105314032D01*
X97112167Y-105314033D01*
X97112170Y-105314035D01*
X97326337Y-105413903D01*
X97554592Y-105475063D01*
X97731034Y-105490500D01*
X97789999Y-105495659D01*
X97790000Y-105495659D01*
X97790001Y-105495659D01*
X97848966Y-105490500D01*
X98025408Y-105475063D01*
X98253663Y-105413903D01*
X98467830Y-105314035D01*
X98661401Y-105178495D01*
X98828495Y-105011401D01*
X98958424Y-104825842D01*
X99013002Y-104782217D01*
X99082500Y-104775023D01*
X99144855Y-104806546D01*
X99161575Y-104825842D01*
X99291500Y-105011395D01*
X99291505Y-105011401D01*
X99458599Y-105178495D01*
X99543614Y-105238023D01*
X99652165Y-105314032D01*
X99652167Y-105314033D01*
X99652170Y-105314035D01*
X99866337Y-105413903D01*
X100094592Y-105475063D01*
X100271034Y-105490500D01*
X100329999Y-105495659D01*
X100330000Y-105495659D01*
X100330001Y-105495659D01*
X100388966Y-105490500D01*
X100565408Y-105475063D01*
X100793663Y-105413903D01*
X101007830Y-105314035D01*
X101201401Y-105178495D01*
X101368495Y-105011401D01*
X101498424Y-104825842D01*
X101553002Y-104782217D01*
X101622500Y-104775023D01*
X101684855Y-104806546D01*
X101701575Y-104825842D01*
X101831500Y-105011395D01*
X101831505Y-105011401D01*
X101998599Y-105178495D01*
X102083614Y-105238023D01*
X102192165Y-105314032D01*
X102192167Y-105314033D01*
X102192170Y-105314035D01*
X102406337Y-105413903D01*
X102634592Y-105475063D01*
X102811034Y-105490500D01*
X102869999Y-105495659D01*
X102870000Y-105495659D01*
X102870001Y-105495659D01*
X102928966Y-105490500D01*
X103105408Y-105475063D01*
X103333663Y-105413903D01*
X103547830Y-105314035D01*
X103741401Y-105178495D01*
X103908495Y-105011401D01*
X104038424Y-104825842D01*
X104093002Y-104782217D01*
X104162500Y-104775023D01*
X104224855Y-104806546D01*
X104241575Y-104825842D01*
X104371500Y-105011395D01*
X104371505Y-105011401D01*
X104538599Y-105178495D01*
X104623614Y-105238023D01*
X104732165Y-105314032D01*
X104732167Y-105314033D01*
X104732170Y-105314035D01*
X104946337Y-105413903D01*
X105174592Y-105475063D01*
X105351034Y-105490500D01*
X105409999Y-105495659D01*
X105410000Y-105495659D01*
X105410001Y-105495659D01*
X105468966Y-105490500D01*
X105645408Y-105475063D01*
X105873663Y-105413903D01*
X106087830Y-105314035D01*
X106281401Y-105178495D01*
X106448495Y-105011401D01*
X106578424Y-104825842D01*
X106633002Y-104782217D01*
X106702500Y-104775023D01*
X106764855Y-104806546D01*
X106781575Y-104825842D01*
X106911500Y-105011395D01*
X106911505Y-105011401D01*
X107078599Y-105178495D01*
X107163614Y-105238023D01*
X107272165Y-105314032D01*
X107272167Y-105314033D01*
X107272170Y-105314035D01*
X107486337Y-105413903D01*
X107714592Y-105475063D01*
X107891034Y-105490500D01*
X107949999Y-105495659D01*
X107950000Y-105495659D01*
X107950001Y-105495659D01*
X108008966Y-105490500D01*
X108185408Y-105475063D01*
X108413663Y-105413903D01*
X108627830Y-105314035D01*
X108821401Y-105178495D01*
X108943329Y-105056566D01*
X109004648Y-105023084D01*
X109074340Y-105028068D01*
X109130274Y-105069939D01*
X109147189Y-105100917D01*
X109196202Y-105232328D01*
X109196206Y-105232335D01*
X109282452Y-105347544D01*
X109282455Y-105347547D01*
X109397664Y-105433793D01*
X109397671Y-105433797D01*
X109532517Y-105484091D01*
X109532516Y-105484091D01*
X109539444Y-105484835D01*
X109592127Y-105490500D01*
X111387872Y-105490499D01*
X111447483Y-105484091D01*
X111582331Y-105433796D01*
X111697546Y-105347546D01*
X111783796Y-105232331D01*
X111834091Y-105097483D01*
X111840500Y-105037873D01*
X111840499Y-103714499D01*
X111860184Y-103647461D01*
X111912987Y-103601706D01*
X111964499Y-103590500D01*
X114157497Y-103590500D01*
X114224536Y-103610185D01*
X114270291Y-103662989D01*
X114280235Y-103732147D01*
X114277272Y-103746593D01*
X114234938Y-103904586D01*
X114234936Y-103904596D01*
X114214341Y-104139999D01*
X114214341Y-104140000D01*
X114234936Y-104375403D01*
X114234938Y-104375413D01*
X114296094Y-104603655D01*
X114296096Y-104603659D01*
X114296097Y-104603663D01*
X114390703Y-104806546D01*
X114395965Y-104817830D01*
X114395967Y-104817834D01*
X114444319Y-104886887D01*
X114531505Y-105011401D01*
X114698599Y-105178495D01*
X114783614Y-105238023D01*
X114892165Y-105314032D01*
X114892167Y-105314033D01*
X114892170Y-105314035D01*
X115106337Y-105413903D01*
X115334592Y-105475063D01*
X115511034Y-105490500D01*
X115569999Y-105495659D01*
X115570000Y-105495659D01*
X115570001Y-105495659D01*
X115628966Y-105490500D01*
X115805408Y-105475063D01*
X116033663Y-105413903D01*
X116247830Y-105314035D01*
X116441401Y-105178495D01*
X116608495Y-105011401D01*
X116738424Y-104825842D01*
X116793002Y-104782217D01*
X116862500Y-104775023D01*
X116924855Y-104806546D01*
X116941575Y-104825842D01*
X117071500Y-105011395D01*
X117071505Y-105011401D01*
X117238599Y-105178495D01*
X117323614Y-105238023D01*
X117432165Y-105314032D01*
X117432167Y-105314033D01*
X117432170Y-105314035D01*
X117646337Y-105413903D01*
X117874592Y-105475063D01*
X118051034Y-105490500D01*
X118109999Y-105495659D01*
X118110000Y-105495659D01*
X118110001Y-105495659D01*
X118168966Y-105490500D01*
X118345408Y-105475063D01*
X118573663Y-105413903D01*
X118787830Y-105314035D01*
X118981401Y-105178495D01*
X119148495Y-105011401D01*
X119278424Y-104825842D01*
X119333002Y-104782217D01*
X119402500Y-104775023D01*
X119464855Y-104806546D01*
X119481575Y-104825842D01*
X119611500Y-105011395D01*
X119611505Y-105011401D01*
X119778599Y-105178495D01*
X119863614Y-105238023D01*
X119972165Y-105314032D01*
X119972167Y-105314033D01*
X119972170Y-105314035D01*
X120186337Y-105413903D01*
X120414592Y-105475063D01*
X120591034Y-105490500D01*
X120649999Y-105495659D01*
X120650000Y-105495659D01*
X120650001Y-105495659D01*
X120708966Y-105490500D01*
X120885408Y-105475063D01*
X121113663Y-105413903D01*
X121327830Y-105314035D01*
X121521401Y-105178495D01*
X121643329Y-105056566D01*
X121704648Y-105023084D01*
X121774340Y-105028068D01*
X121830274Y-105069939D01*
X121847189Y-105100917D01*
X121896202Y-105232328D01*
X121896206Y-105232335D01*
X121982452Y-105347544D01*
X121982455Y-105347547D01*
X122097664Y-105433793D01*
X122097671Y-105433797D01*
X122232517Y-105484091D01*
X122232516Y-105484091D01*
X122239444Y-105484835D01*
X122292127Y-105490500D01*
X124087872Y-105490499D01*
X124147483Y-105484091D01*
X124282331Y-105433796D01*
X124397546Y-105347546D01*
X124483796Y-105232331D01*
X124534091Y-105097483D01*
X124540500Y-105037873D01*
X124540499Y-103714499D01*
X124560184Y-103647461D01*
X124612987Y-103601706D01*
X124664499Y-103590500D01*
X127430500Y-103590500D01*
X127497539Y-103610185D01*
X127543294Y-103662989D01*
X127554500Y-103714500D01*
X127554500Y-104078324D01*
X127554264Y-104083730D01*
X127549341Y-104139998D01*
X127549341Y-104140001D01*
X127554264Y-104196269D01*
X127554500Y-104201675D01*
X127554500Y-106837870D01*
X127554501Y-106837876D01*
X127560908Y-106897483D01*
X127611202Y-107032328D01*
X127611204Y-107032331D01*
X127673980Y-107116189D01*
X127698398Y-107181652D01*
X127683547Y-107249926D01*
X127634142Y-107299331D01*
X127574714Y-107314500D01*
X71757023Y-107314500D01*
X71752975Y-107314367D01*
X71710726Y-107311598D01*
X71671364Y-107309018D01*
X71557105Y-107300846D01*
X71502537Y-107296943D01*
X71494860Y-107295909D01*
X71382791Y-107273617D01*
X71357281Y-107268067D01*
X71247069Y-107244092D01*
X71240314Y-107242217D01*
X71126156Y-107203466D01*
X71044078Y-107172853D01*
X71001219Y-107156867D01*
X70995466Y-107154383D01*
X70884907Y-107099860D01*
X70769606Y-107036901D01*
X70764872Y-107034035D01*
X70674820Y-106973865D01*
X70662510Y-106965639D01*
X70659812Y-106963730D01*
X70630919Y-106942101D01*
X70556478Y-106886375D01*
X70552777Y-106883374D01*
X70459878Y-106801905D01*
X70456935Y-106799148D01*
X70365849Y-106708062D01*
X70363090Y-106705116D01*
X70281620Y-106612217D01*
X70278629Y-106608527D01*
X70201255Y-106505167D01*
X70199369Y-106502504D01*
X70130963Y-106400126D01*
X70128097Y-106395392D01*
X70065139Y-106280092D01*
X70035746Y-106220490D01*
X70010607Y-106169513D01*
X70008136Y-106163792D01*
X69961531Y-106038838D01*
X69922778Y-105924675D01*
X69920910Y-105917945D01*
X69891386Y-105782227D01*
X69869085Y-105670112D01*
X69868058Y-105662489D01*
X69855992Y-105493800D01*
X69852060Y-105433796D01*
X69850633Y-105412018D01*
X69850500Y-105407964D01*
X69850500Y-103572763D01*
X71805787Y-103572763D01*
X71835413Y-103842013D01*
X71835415Y-103842024D01*
X71903926Y-104104082D01*
X71903928Y-104104088D01*
X72009870Y-104353390D01*
X72081998Y-104471575D01*
X72150979Y-104584605D01*
X72150986Y-104584615D01*
X72324253Y-104792819D01*
X72324259Y-104792824D01*
X72429240Y-104886887D01*
X72525998Y-104973582D01*
X72751910Y-105123044D01*
X72997176Y-105238020D01*
X72997183Y-105238022D01*
X72997185Y-105238023D01*
X73256557Y-105316057D01*
X73256564Y-105316058D01*
X73256569Y-105316060D01*
X73524561Y-105355500D01*
X73524566Y-105355500D01*
X73727636Y-105355500D01*
X73779133Y-105351730D01*
X73930156Y-105340677D01*
X74049769Y-105314032D01*
X74194546Y-105281782D01*
X74194548Y-105281781D01*
X74194553Y-105281780D01*
X74447558Y-105185014D01*
X74683777Y-105052441D01*
X74898177Y-104886888D01*
X75086186Y-104691881D01*
X75243799Y-104471579D01*
X75317787Y-104327669D01*
X75367649Y-104230690D01*
X75367651Y-104230684D01*
X75367656Y-104230675D01*
X75455118Y-103974305D01*
X75504319Y-103707933D01*
X75514212Y-103437235D01*
X75484586Y-103167982D01*
X75416072Y-102905912D01*
X75310130Y-102656610D01*
X75169018Y-102425390D01*
X75079747Y-102318119D01*
X74995746Y-102217180D01*
X74995740Y-102217175D01*
X74794002Y-102036418D01*
X74568092Y-101886957D01*
X74507360Y-101858487D01*
X74322824Y-101771980D01*
X74322819Y-101771978D01*
X74322814Y-101771976D01*
X74063442Y-101693942D01*
X74063428Y-101693939D01*
X73947791Y-101676921D01*
X73795439Y-101654500D01*
X73592369Y-101654500D01*
X73592364Y-101654500D01*
X73389844Y-101669323D01*
X73389831Y-101669325D01*
X73125453Y-101728217D01*
X73125446Y-101728220D01*
X72872439Y-101824987D01*
X72636226Y-101957557D01*
X72421822Y-102123112D01*
X72233822Y-102318109D01*
X72233816Y-102318116D01*
X72076202Y-102538419D01*
X72076199Y-102538424D01*
X71952350Y-102779309D01*
X71952343Y-102779327D01*
X71864884Y-103035685D01*
X71864881Y-103035699D01*
X71815681Y-103302068D01*
X71815680Y-103302075D01*
X71805787Y-103572763D01*
X69850500Y-103572763D01*
X69850500Y-74932036D01*
X69850633Y-74927981D01*
X69855981Y-74846373D01*
X69856618Y-74837461D01*
X69868058Y-74677508D01*
X69869084Y-74669891D01*
X69891395Y-74557728D01*
X69920912Y-74422044D01*
X69922775Y-74415333D01*
X69961542Y-74301129D01*
X70008142Y-74176193D01*
X70010600Y-74170500D01*
X70065141Y-74059901D01*
X70128120Y-73944565D01*
X70130950Y-73939892D01*
X70199394Y-73837459D01*
X70201229Y-73834866D01*
X70278648Y-73731446D01*
X70281598Y-73727807D01*
X70363124Y-73634845D01*
X70365819Y-73631967D01*
X70456967Y-73540819D01*
X70459845Y-73538124D01*
X70552807Y-73456598D01*
X70556446Y-73453648D01*
X70659866Y-73376229D01*
X70662459Y-73374394D01*
X70764892Y-73305950D01*
X70769565Y-73303120D01*
X70884886Y-73240149D01*
X70995500Y-73185600D01*
X71001193Y-73183142D01*
X71126129Y-73136542D01*
X71240333Y-73097775D01*
X71247044Y-73095912D01*
X71382728Y-73066395D01*
X71494891Y-73044084D01*
X71502506Y-73043058D01*
X71671319Y-73030984D01*
X71717921Y-73027930D01*
X71752982Y-73025633D01*
X71757037Y-73025500D01*
X75440211Y-73025500D01*
X75507250Y-73045185D01*
G37*
%TD.AperFunction*%
M02*
