M48
; DRILL file {KiCad 7.0.6} date Fri Sep  1 11:13:43 2023
; FORMAT={-:-/ absolute / metric / decimal}
; #@! TF.CreationDate,2023-09-01T11:13:43+02:00
; #@! TF.GenerationSoftware,Kicad,Pcbnew,7.0.6
; #@! TF.FileFunction,Plated,1,2,PTH
FMAT,2
METRIC
; #@! TA.AperFunction,Plated,PTH,ComponentDrill
T1C0.700
; #@! TA.AperFunction,Plated,PTH,ComponentDrill
T2C1.000
; #@! TA.AperFunction,Plated,PTH,ComponentDrill
T3C1.020
; #@! TA.AperFunction,Plated,PTH,ComponentDrill
T4C1.500
; #@! TA.AperFunction,Plated,PTH,ComponentDrill
T5C1.600
; #@! TA.AperFunction,Plated,PTH,ComponentDrill
T6C3.200
%
G90
G05
T1
X75.565Y-81.28
X83.185Y-81.28
X87.63Y-81.28
X95.25Y-81.28
T2
X89.64Y-90.095
X89.64Y-92.595
X89.64Y-95.095
X95.25Y-104.14
X97.79Y-104.14
X100.33Y-104.14
X102.87Y-104.14
X104.14Y-90.095
X104.14Y-95.095
X105.41Y-104.14
X107.95Y-104.14
X110.49Y-104.14
X115.57Y-104.14
X118.11Y-104.14
X120.65Y-104.14
X123.19Y-104.14
T3
X128.905Y-86.36
X128.905Y-104.14
X129.135Y-92.71
X129.135Y-95.25
X129.135Y-97.79
X131.445Y-86.36
X131.445Y-104.14
X133.985Y-86.36
X133.985Y-104.14
X136.525Y-86.36
X136.525Y-104.14
X139.065Y-86.36
X139.065Y-104.14
X141.605Y-86.36
X141.605Y-104.14
X144.145Y-86.36
X144.145Y-104.14
X146.685Y-86.36
X146.685Y-104.14
X149.225Y-86.36
X149.225Y-104.14
X151.765Y-86.36
X151.765Y-104.14
X154.305Y-86.36
X154.305Y-104.14
X156.845Y-86.36
X156.845Y-104.14
X159.385Y-86.36
X159.385Y-104.14
X161.925Y-86.36
X161.925Y-104.14
X164.465Y-86.36
X164.465Y-104.14
X167.005Y-86.36
X167.005Y-104.14
X169.545Y-86.36
X169.545Y-104.14
X172.085Y-86.36
X172.085Y-104.14
X174.625Y-86.36
X174.625Y-104.14
X177.165Y-86.36
X177.165Y-104.14
T5
X71.48Y-91.44
X78.48Y-91.44
T6
X73.66Y-103.505
X193.675Y-103.505
T4
G00X96.49Y-86.995
M15
G01X97.79Y-86.995
M16
G05
G00X96.49Y-98.195
M15
G01X97.79Y-98.195
M16
G05
T0
M30
